<mxfile host="app.diagrams.net" modified="2023-09-09T12:38:24.295Z" agent="Mozilla/5.0 (X11; Linux x86_64) AppleWebKit/537.36 (KHTML, like Gecko) Chrome/116.0.0.0 Safari/537.36" etag="hjekq4vGTwJro-pm1yuC" version="21.7.4" type="device">
  <diagram id="5AvFhRTivvrqknJRHBf4" name="Page-1">
    <mxGraphModel dx="1124" dy="781" grid="0" gridSize="10" guides="1" tooltips="1" connect="1" arrows="1" fold="1" page="1" pageScale="1" pageWidth="827" pageHeight="1169" math="0" shadow="0">
      <root>
        <mxCell id="0" />
        <mxCell id="1" parent="0" />
        <mxCell id="yElIzEVytk4T3G2UVmzk-53" value="&lt;h1 style=&quot;font-size: 19px;&quot;&gt;Public Access:&lt;/h1&gt;&lt;p style=&quot;font-size: 19px;&quot;&gt;&lt;/p&gt;&lt;ul style=&quot;font-size: 19px;&quot;&gt;&lt;li style=&quot;&quot;&gt;&lt;font style=&quot;font-size: 19px;&quot;&gt;https://gitlab.com/recovery-keys/sep&lt;i style=&quot;border-color: var(--border-color); font-size: 15px; text-align: center;&quot;&gt;2023&lt;/i&gt;&lt;br&gt;&lt;/font&gt;&lt;/li&gt;&lt;li style=&quot;&quot;&gt;&lt;font style=&quot;font-size: 19px;&quot;&gt;https://github.com/recovery-keys/sep&lt;/font&gt;&lt;i style=&quot;border-color: var(--border-color); font-size: 15px; text-align: center;&quot;&gt;2023&lt;/i&gt;&lt;br&gt;&lt;/li&gt;&lt;/ul&gt;&lt;p&gt;&lt;/p&gt;" style="text;html=1;strokeColor=default;fillColor=none;spacing=5;spacingTop=-20;whiteSpace=wrap;overflow=hidden;rounded=0;" parent="1" vertex="1">
          <mxGeometry x="416" y="84" width="401" height="120" as="geometry" />
        </mxCell>
        <mxCell id="yElIzEVytk4T3G2UVmzk-54" style="edgeStyle=orthogonalEdgeStyle;rounded=0;orthogonalLoop=1;jettySize=auto;html=1;entryX=0;entryY=0.5;entryDx=0;entryDy=0;fontSize=19;endArrow=none;endFill=0;" parent="1" source="yElIzEVytk4T3G2UVmzk-51" target="yElIzEVytk4T3G2UVmzk-53" edge="1">
          <mxGeometry relative="1" as="geometry" />
        </mxCell>
        <mxCell id="yElIzEVytk4T3G2UVmzk-72" value="" style="group" parent="1" vertex="1" connectable="0">
          <mxGeometry x="35.510000000000005" y="328" width="133.33" height="104" as="geometry" />
        </mxCell>
        <mxCell id="yElIzEVytk4T3G2UVmzk-31" value="" style="group;shadow=0;strokeColor=#6c8ebf;fillColor=#dae8fc;strokeWidth=6;container=0;" parent="yElIzEVytk4T3G2UVmzk-72" vertex="1" connectable="0">
          <mxGeometry x="6.999999999999998" y="16.930232558139533" width="119.99999999999997" height="87.06976744186046" as="geometry" />
        </mxCell>
        <mxCell id="yElIzEVytk4T3G2UVmzk-63" value="Layer 1 - Data" style="text;html=1;align=center;verticalAlign=middle;resizable=0;points=[];autosize=1;strokeColor=none;fillColor=none;fontStyle=1" parent="yElIzEVytk4T3G2UVmzk-72" vertex="1">
          <mxGeometry x="16.999999999999996" y="13" width="100" height="30" as="geometry" />
        </mxCell>
        <mxCell id="yElIzEVytk4T3G2UVmzk-64" value="" style="group" parent="yElIzEVytk4T3G2UVmzk-72" vertex="1" connectable="0">
          <mxGeometry x="7" y="43" width="120" height="58" as="geometry" />
        </mxCell>
        <mxCell id="yElIzEVytk4T3G2UVmzk-65" value="" style="rounded=0;whiteSpace=wrap;html=1;labelBackgroundColor=#ffffff;sketch=0;fontColor=#000000;fillColor=none;" parent="yElIzEVytk4T3G2UVmzk-64" vertex="1">
          <mxGeometry width="120" height="58" as="geometry" />
        </mxCell>
        <mxCell id="yElIzEVytk4T3G2UVmzk-66" value="img" style="html=1;shape=mxgraph.sysml.actPart;strokeWidth=3;verticalAlign=top;rotation=0;whiteSpace=wrap;labelBackgroundColor=#ffffff;sketch=0;fontColor=#000000;fillColor=none;" parent="yElIzEVytk4T3G2UVmzk-64" vertex="1">
          <mxGeometry x="30" y="19" width="60" height="11.02" as="geometry" />
        </mxCell>
        <mxCell id="yElIzEVytk4T3G2UVmzk-67" value="common" style="html=1;shape=mxgraph.sysml.actPart;strokeWidth=3;verticalAlign=top;rotation=0;whiteSpace=wrap;labelBackgroundColor=#ffffff;sketch=0;fontColor=#000000;fillColor=none;" parent="yElIzEVytk4T3G2UVmzk-64" vertex="1">
          <mxGeometry x="29.999999999999993" y="3.2456395348837215" width="59.999999999999986" height="11.359738372093021" as="geometry" />
        </mxCell>
        <mxCell id="yElIzEVytk4T3G2UVmzk-74" value="" style="endArrow=none;html=1;rounded=0;fontSize=12;fontColor=#6666FF;strokeWidth=4;" parent="1" edge="1">
          <mxGeometry width="50" height="50" relative="1" as="geometry">
            <mxPoint x="7" y="276" as="sourcePoint" />
            <mxPoint x="817" y="276" as="targetPoint" />
          </mxGeometry>
        </mxCell>
        <mxCell id="OYULaESSwx-3YMfkk9iS-5" value="" style="endArrow=none;html=1;rounded=0;fontSize=12;fontColor=#6666FF;strokeWidth=4;" parent="1" edge="1">
          <mxGeometry width="50" height="50" relative="1" as="geometry">
            <mxPoint x="4" y="743" as="sourcePoint" />
            <mxPoint x="814" y="743" as="targetPoint" />
          </mxGeometry>
        </mxCell>
        <mxCell id="Q3yK326wnI5sMofUPGnv-15" value="&lt;u&gt;&lt;b&gt;Volumes:&lt;/b&gt;&lt;/u&gt;" style="text;html=1;align=center;verticalAlign=middle;resizable=0;points=[];autosize=1;strokeColor=none;fillColor=none;fontColor=#000000;" parent="1" vertex="1">
          <mxGeometry x="51" y="285" width="71" height="26" as="geometry" />
        </mxCell>
        <mxCell id="Q3yK326wnI5sMofUPGnv-18" value="&lt;u&gt;&lt;b&gt;Recovery&lt;/b&gt;&lt;/u&gt;" style="text;html=1;align=center;verticalAlign=middle;resizable=0;points=[];autosize=1;strokeColor=none;fillColor=none;fontColor=#000000;" parent="1" vertex="1">
          <mxGeometry x="17" y="11" width="72" height="26" as="geometry" />
        </mxCell>
        <mxCell id="yElIzEVytk4T3G2UVmzk-69" value="Bitwardan" style="shape=image;html=1;verticalAlign=top;verticalLabelPosition=bottom;labelBackgroundColor=#ffffff;imageAspect=0;aspect=fixed;image=https://cdn4.iconfinder.com/data/icons/internet-security-flat-2/32/Internet_Security_padlock_lock_locked_password_secure-128.png;sketch=0;fontSize=16;fontColor=#000000;fillColor=none;imageBorder=default;" parent="1" vertex="1">
          <mxGeometry x="100.5" y="73" width="50" height="50" as="geometry" />
        </mxCell>
        <mxCell id="yElIzEVytk4T3G2UVmzk-70" value="&lt;font style=&quot;&quot;&gt;&lt;b style=&quot;font-size: 15px;&quot;&gt;password prefix :&lt;/b&gt;&lt;br&gt;&lt;span style=&quot;font-size: 15px;&quot;&gt;&lt;i&gt;veracyrpt - sep 2023&lt;/i&gt;&lt;/span&gt;&lt;br&gt;&lt;/font&gt;" style="rounded=1;whiteSpace=wrap;html=1;shadow=0;fontSize=18;strokeColor=#000000;strokeWidth=1;fillColor=default;" parent="1" vertex="1">
          <mxGeometry x="51" y="153" width="149" height="52" as="geometry" />
        </mxCell>
        <mxCell id="yElIzEVytk4T3G2UVmzk-71" value="" style="rounded=0;whiteSpace=wrap;html=1;strokeColor=default;fontSize=12;fontColor=#6666FF;fillColor=none;" parent="1" vertex="1">
          <mxGeometry x="39" y="53" width="190" height="167" as="geometry" />
        </mxCell>
        <mxCell id="Y41P-z0WBD0zW_LyuXKW-7" value="&lt;u&gt;&lt;b&gt;How to use:&lt;/b&gt;&lt;/u&gt;" style="text;html=1;align=center;verticalAlign=middle;resizable=0;points=[];autosize=1;strokeColor=none;fillColor=none;fontColor=#000000;" parent="1" vertex="1">
          <mxGeometry x="291" y="289" width="86" height="26" as="geometry" />
        </mxCell>
        <mxCell id="Y41P-z0WBD0zW_LyuXKW-16" value="" style="group;align=left;" parent="1" vertex="1" connectable="0">
          <mxGeometry x="304" y="339" width="346.25" height="124.75999999999999" as="geometry" />
        </mxCell>
        <mxCell id="Y41P-z0WBD0zW_LyuXKW-9" value="" style="group" parent="Y41P-z0WBD0zW_LyuXKW-16" vertex="1" connectable="0">
          <mxGeometry width="270" height="47" as="geometry" />
        </mxCell>
        <mxCell id="Y41P-z0WBD0zW_LyuXKW-10" value="" style="sketch=0;aspect=fixed;pointerEvents=1;shadow=0;dashed=0;html=1;strokeColor=none;labelPosition=center;verticalLabelPosition=bottom;verticalAlign=top;align=center;fillColor=#00188D;shape=mxgraph.azure.virtual_machine_feature;fontSize=19;" parent="Y41P-z0WBD0zW_LyuXKW-9" vertex="1">
          <mxGeometry width="50" height="45" as="geometry" />
        </mxCell>
        <mxCell id="Y41P-z0WBD0zW_LyuXKW-11" value="1. Load partition." style="text;html=1;align=center;verticalAlign=middle;resizable=0;points=[];autosize=1;strokeColor=none;fillColor=none;fontSize=19;" parent="Y41P-z0WBD0zW_LyuXKW-9" vertex="1">
          <mxGeometry x="85" y="3" width="160" height="35" as="geometry" />
        </mxCell>
        <mxCell id="yElIzEVytk4T3G2UVmzk-57" value="" style="shape=image;verticalLabelPosition=bottom;labelBackgroundColor=default;verticalAlign=top;aspect=fixed;imageAspect=0;image=data:image/png,iVBORw0KGgoAAAANSUhEUgAAAlgAAAE7CAYAAAAB7v+1AAAABGdBTUEAALGPC/xhBQAAACBjSFJNAAB6JgAAgIQAAPoAAACA6AAAdTAAAOpgAAA6mAAAF3CculE8AABmRElEQVR42uy9BXRU6ba1/Y3xje/e/x6Xe9oFDxDstHufdhfaXZEgTQvu7h4kgeDaQIgDAYIEtwTiuAdNCHGrZP5jvZUdKpWyJCW7yFxjzA4dKdm7ar9PrbXeuf4PgP9DUbUUg8Fg1Ifg9Z6qsXgQKAIWg8FgELAoAhZFwGIwGAwCFkXAoghYDAaDQcCiCFgURcBiMBgMAhZFwKIIWAwGg0HAoghYFAGLwWAwCFgUAYuiCFgMBoOARVEELIqAxWAwGAQsioBFEbAYDAaDgEURsCgCFoPBYBCwKIqARRGwGAwGg4BFEbAoAhaDwWAQsCgCFkXAYjAYDAIWRcCiKAIWg8FgELAoAhZFwGIwGAwCFkXAoghYDAaDQcCiCFgURcBiMBgMAhZFwKIIWAwGg0HAoghYFAGLwWAwCFgUAYuiCFgMBoOARVEELIqAxWAwGAQsioBFEbAYDAaDgEURsCgCFoPBYBCwKIqARRGwGAwGg4BFEbAoAhaDwWAQsCgCFkXAYjAYDAIWRcCiKAIWg8FgELAoAhZFwGIwGAwCFkXAoghYDAaDQcCiCFgURcBiMBgELIoiYFEELAaDwSBgUQQsioDFYDAYBCyKgEVRBCwGg0HAoigCFkXAYjAYDAIWRcCiCFgMBoNBwKIIWBQBi8FgMAhYFEXAoghYDAaDQcCiCFgUAYvBYDAIWBQBiyJgMRgMBgGLImBRFAGLwWAwCFgUAYsiYDEYDAYBiyJgUQQsBoPBIGBRBCyKImAxGAwCFkURsCgCFoPBYBCwKAIWRcBiMBgMAhZFwKIoXnMZDAYBi6IIWJSbAKusHMguKUOWl+tmSRmK5ckwGE4OQ3kZCkqLkV9arL56s4pKS1Fk8H6VlZcTsCgCFqVfwJJrVF5pGcakZuDlbefweux5vLbdO/XqtnOYeTQD+aVlIGYxnBHl6gNIGbanH8fkw5sw/fBmTPNWxW/GnMTtWHtsP8JPHPJahR0/iJizScguLiBgUQQsSt+AJUmf0Is5uDvsOP7vqjT8v9Xeqf9akYzW4Uex7UouAYvhFLgSXcq/ib77wvD5pvnw27oUXbxQ8ri7bVuGgbuCMfFAFGbGR2NW/Eav1OzDm7Dv0gmUlBlQbv2dzus9RcCi9NGDJeW1Dgcu4b9XH8X/rPE+/WF1Gv66Mhl/Wp6EH/ecR1axgYTAqHNIKer3E4fw8aZ5Sh22LEH3bcvRfdsyr1E3peXou3M1Ru8Lx9j9EZgeF42Aw5sUrHiL5PHOjN+I4OP7kVWUzx4sioBFeU+T+45r+fBdf0plg/6/NUe9Sn/8PQV/WZGEP69IwgPBqQg9dxNlFRkIBqO2kZSZjs6xK/F+9Fx8sDEIX25egC5bNWjxHv0SuwLD9oZgzL5wBVkTDkRVZoO8RbMOb8SchC1Iun7eXv8VAYsiYFH6AqySsnLVi/WXtce8Cq7+sCpVgdVfKvTH5Yl4bfMpnM4priz1MBg1jbzSYsxO2YH2G4MUXIk+3BiE77cs8jrA6r9rjQIrTQJa0w5t8C7Ait+I6DNH1EYD7iKkCFiU19k0pGYX45ktZ1UW63+8AK7+Z3Ua/lSRvTLVP39PxuSUa2pXIQGLUfP+q3LsvXIGP2xbhvYV2StNn22ej84VPU3eoN9iV2LE3rAqgCUatz9S9WJ5R/ZqExYnx+JM9jVHTyGv9xQBi9IPYEnWXbJYASey8LeQY/hvbygNrkqtBldaFuvpDSeQcKOQtMCocWN7RmEuBh2IxHvRc1TW6gMzfRuz0Cvg6qdtyzFo99pqcKVpysH1XgNYW8+noNhQ4ugHJl7vKQIWpT+j0cxiAz7bk47/qmh413P26s8rky0CllYy7HPoEnJLykgODIcBS/p7os4l4ZPN86uBlSZpeO+4dYlJE7n+1HXbMvTa8TtGWsheaRq7PxIzdJ7FktLgirTduFaQU5NTyes9RcCi9AVY2if49Zfy8GDECfy3jkuFf7RQGjTVn5YnomlIGjam55AcGA7H+dwb6LUnpLKx3Zq+2rwQXXVcKuyxfQWG7rnV2G5Jo/aFK9uGWfH6BazAI5tx+OpZRxrbCVgUAYvS/6gcsW3oEXcF/7NGn4D1BxvZK01/lUzW8iR8u+scMosM7MVi2I1CQwnmpe2u0thuTR9tmocftyzWbRZLs2WwpzH7IjBdpw3vYssQcvyAI7YMBCyKgEV5zyzCuBuFeGzTGfw/HZYK/2Qne2Wqu1enYNmpG8pQlZDFsNbULnHk+gV0il1hN3ul6XNl27BUl7YMw/eGOgRYRtuGSN3ZNkjf1fzErTiamY5abFXh9Z4iYFH6BKzyCtuGiUcz8ee1+mp4/4OVxnZrWaw/Lk/C89EncTS7iCTBsApY2cWFmJawVcHVhw7AlWbb8F2Mvmwbulc4tjsKV5UN74f01/Aecy4JhaUltTmlvN5TBCxKvxksiRM5xXhh2znd2DYoWwY7pUFLDe//+D0Z45OuKWhkMKrSVbnq79mafgxfxCxC+42OA5bo001i27BEN4DVM9Z2Y7s1jdsfoZuGd8mmLUrejvM5GbU9q7zeUwQsSr+ApTW8r71gnFOoZ1sGexLbhocij2Hf9XwCBaNaXCnIxoD9EXjfii2DPX0ds1Dt2vO4LcN2sWWoefZK0+SD63STvdp98aiaN0jAoghY1G2ZwSqvaHj/dv8l/NeaNN3aMjiiP61IRNd9FzmnkFElJHsVdjrBpi2DIw3vMqfQ04DVe+cqjKpF9uqWbUME/OOiPZy92oTVR/fVprGdgEURsCjvAiyJmCt5aBR10qOlwj/WoLHd4o7CFUlotDYN6y7kKFNVFgsZEqk3LqPbjlUON7Zbk8wp7LrNcw3vP8u8QTu2DI5I2TYc9lzD+5wjMThSc1sGAhZFwKK8C7C0yC8tw+Ck6/iThxre/1DH7JUGWeKN9cG2M7hcUEqyYKh5g4Epu/BBHeFKZbE2zsMPWxZ7zpZh1xrlazW6jhLbhmlxGzxmyxB5Mg45xQV1PbW83lMELMo7AEsi6WYRnoo5q2wb9GzLYE//WJmMWUevw1DOHFZ9j/jrF9ChBrYMtiTeWZ9t8sycwl/VvMHQOsOVpvEHIhXsuNeWYSMWJm3Hqayrzji1vN5TBCzKewCrtKwc049n4m/B3tHYbr3hPQnPRZ9EchbnFNbnuFGUj1Hx0WreYF3hypO2Dd23L8fAOjS2W214P7TO7b1XW84lo8hQQsCiCFhU/QIsiYsFJXhvxwW3zSn8HyeUBi3p7yuTMPzIFRQYOKewvoU2bzD6fEpFY/tcpwGW6JNN89DJjXMK7c0brK3G7Y90a8P7kuQdSM+94azTzOs9RcCivAewjAsTEHUpF/dHypxCfZmK1rQXq2XYUcRcyq20o2DUH8C6lJ+NfvvCnVIatDyncIFbbBtk3uDg3XVvbLemSQfXKUd1d8wbPHTlFAzlZc56L/J6TxGwKO/KYElklRjQ4cAltaPQG7NXtyArCR32XMBN2jbUqyg0lGLZ8QPKWsEVcKU1vIttg6uzWH13rHZKY7vNOYUubngXU9G1x/bjZpFTPep4vacIWJT3AZbE3owCtN5wGv9vVZoubRkcdXi/PzgVkReymcGqR5GYmY7OTmpst6Uv1JxCF9oybHeOLYP9OYWus22Q7NichBgkX7+AcuduOuH1niJgUd4JWCVlwPi0TPw5+JjLSoOuyl6Z6g/Lk/Dq5lM4k1tcWT5i3L6RW1KEWcmxTu+7cnfDu2TG+u9a41KwMs1iTXXRnEIBt01nElBQWuzsU83rPUXAorwTsCRSs4vxzBbnzymszbzBuuifvydjcsp1FJeVE7Bu474rObu7L5/Ct1uXuDx7ZTqn0M8Fcwp/c1FjuyVJCXLcgUinzymU7NXi5Ficzb7uilPO6z1FwKK8E7BkwSotL8f80zfxjxDnmo+6orHdVi+WzCl8av0JHM4sIIncxoB1vSAXQw5EuQ2uNH0Ts9AF8wbXurw0aMm2YZaTs1fbz6eg2FDqig82vN5TBCzKezNYEjmlZfhib7rTbBtc2dhue05hEn49mI7sEja8344htgxR55Lxyab5boUr0ceb5qGjExvee+9YhZF73QtXRtuGCKdlsQSufk/bjYyCXFedcl7vKQIW5d2AJZ88oy/noYGybah7qdDVje3WzUcT0TQkDdHpObRtuA3jTE4Gft29VmWvPnQzYFXOKXSCw7s0tg91Q2O71TmFB6OcksUSW4bDV8/Udd4gAYsiYFG3L2BJZJeU4bfDV+oMVyp75QG4qsxiLU/Ct7vOI6PIQMC6jaLQUIKg1N1uh6oqtg2b5uFHJ8wp7LvTtbYM9hvew+s8p1BG8IQeP4hs59oyELAoAhZ1+wGWRHxWIR7ffKZODe+eyl6Z6o5VyZh3IlPNKSRkeX/flURixkV0il3p9t4rc322WRrea5/F+mX7CgzfE+oxuHKGbYNkv+YnbsPxG5edbctAwKIIWNTtB1jlyrahHJOOZuIva4/VyuHdnY3t9hre/7PxJI5mF5FQboO4WVyAqQlb8f5Gz8KVptraNkj/1sBdwR6HK011sW2IOZuEwtISV596Xu8pAhZ1e2SwJM7ml+Dlbedq7PDublsGR2wbJiRdU9DI8N78lfT3bLl4FF/GLEJ7HQBW+wrbhs41tG3oqmwZVmKEm2wZHJ1TWNOGd8l6LUmOxfnsDHe8AHi9pwhY1O0DWIIjay/k4J7wEzWybfijDrJXVRrelyXi35HHsftaPjnFi+NaQQ4G7o/wWGO7NX29eWGN5hRqtgx6gStT24aaZq/2ph9HaVkZAYsiYFEErJoC1s2SMny3/5LDtg2esmVwpOG9896LyOScQq8MGRocfCoeH3vAlsF+w3sQOtSg4b3PztW6gyvR2P0R8Hew4V3mDa45uhdZRXnuegnwek8RsKjbC7BEW6/modm6k/gvBxre9dDYbs0Xq9HaNKy/aJxTWM5qoVdFWtZldN25yuON7dZKhWpO4Tb7De89PGzLYNe2wYGGdzVv8EgMEq6ddaUtAwGLImBRty9gaVFgKMeI5Ov4c/BRm6VCvWavVMP7SmPD+4fbziI9v4Q7Cr0o8kqKEJCyU3dgVXVO4Tx8v8V+w3s/nWavKm0b9kdg2iHbWayZhzci8lQ8cooL3fky4PWeImBRtx9gSSTfLMLTMWdtNrz/SadwZaq/r0zGzLTryraB4R1x8NpZ/Lh9uS4a221lsezZNvwaK43toboGLNH4A5HK28paaXBRcixO37zq7pcBr/cUAYu6PQHLUA7MOH4Df197TLe2DI46vD+74QSSsgpJLl4QGYV5GBMfjXc3zNFVY7s1fWtlTqE0tg/cHax7uNI05eA6q+XBredSUGQoIWBRBCyKgOWsfqxLBaX4aNdFYy9WsHeUBs3154os1uDDl5FXWkaC0XFIf0/0uRR8tnmB7sGqck7hxnnoZGbbIDsMe+34HSN1ZMvgiG2Df1x0tezVstRduJx30xMvB17vKQIWdfsClthIRaXn4v6IqrYNf/SS7NWtLFYSfELTsOkS5xTqOdLzbqLvvjC015ktgz19FbOwSsO7NLYP0XFjuzVNOriuypxCmTd46MpptaOTgEURsCgClpMhK6ukDJ0PXla2DXqYN1hbh/c/LU9Exz0XkEXbBv1FOVBkKMXio/u8BqrM5xSa2jZ4et5g7ecURmB63AYEVMwbDD62D1lq3mA5AYsiYFEELGcDlmo6zixEu42nVcP7n3Rqy2C3VLg8CfetScWaszdRxiyW7iIx8yL8dqzUzUicmurzzQvgt20pft6+AsNM5g2O8SJptg0CV0EJW5GSccGdtgwELIqARdUfwNKiuKwc49My8Ndg78teVZlTuCwRL248iTO5xSQaHYXYMsxKjsUHXgpXyrZhUxC+27II/Xetweh9YV6XvarS8H5oPTafTURBqUffJ7zeUwQs6vYHLIm07CK8suEk/r4oAf9anIj/9Uol4J4lSZh55CpKy8qZxdJJY3tM+gl8ErMIb0bPwdvRc71O72wMUo+9Q+xKhJ6MU8OQN3upNp1NwrYLqbiUl+Xplwav9xQBi7r9AUuqBIayciw/mokmi5Jw97wE3OONmp+AewKO4PUlaUi6wjmFeogrBbnosicMT0XNwssb5ni1ZqXuRk5JIUrKDCgxiEq9U2UGlHveN47Xe4qARdWPDJbEjSIDOm05i7uCEnCvFwLWvUEJaDg9Ho0mxWHg5nPILmLDu+f62svV7rSVpxPx5LpAPB41Gy96KVi9sD4AP+5cjdSsq5XPjUHAoghYFAGrRk3vMeez0XZ5Cu4KOuJ1gPXA7MNoPCUODSYdwhOBidh6+iaXMQ/G0ZvX8en2lfh3xAw8EjkTT68L8Dq4emnDHLy1aT5Wn05AaVkZ0YqARRGwKAJWbRuSyzB0X7r3Za/mJqDhtHg0nhyn1HDSIXSNOIUbBaVcFD0Q+aUlmJi8Aw9HzqzUo1Gz8J/1gV4FWC+uD0Sv/ZG4VJDDk0rAoghYFAGr9hksieSMArwSehx3BnkPYD0483AlXGlqOf0wlh25pvrLCFnujX3XLuCtmMVoF+FfBbKejJqtskLekr16e9MCbLx4jGVBAhZFwKIIWHWPYkM5ph+5igcXJHoFXN0XeASNplaFqyaT49Bg4iG0X56Gk5mcU+jOyCwqQP9DG1Vp0BSuRFIqfH69/kuFr2yYixc3BGJC4jbklhYTrwhYFAGLImA5J87lFOPj9adwp957sYIS8OCM6tkrTT5T4+G/95KCRoarM6DGxvbw86l4ZsMcPBRZHbBET0TNUvCiX7iaox7fl9tXIOHGJfW8mMEiYFEELIqA5bSIOn0TLZYk69q24f4AY2O7NcCShvf/zEvGvvPsoXFHXCnIQ8fdoZWN7Q9b0bPrZuu6NCgKPLoXBYYSnlQCFkXAoghYzo3sYgO6bTunslj36rKx/YiyZbAGV7cgKw69o8/iZiFtG1wZsstu/vFDeCxqtlWw0vRY1Cy8oNOGd3lc3faE4HROJk8qAYsiYFEELGeXe4zakZ6Lx35PU95Y+rNlOIJGU+LsApb4Yj0akIBNJ7KUqSqLPa6JhBuX8d6WpRZ7ryzp6XU6bHhfb2xsDz+XzLIgAYsiYFEELNdBVmFpGSbGXcEDCxJ1VSq8b86RKrYMttSkIov11erjSM8pRjnXTadHXmkxxiXGOgRWlbYNkfqybZDG9v+sC0CfA+twtTCXJ5WARRGwKAKWayMlsxCvhZ3QVcO7JVsGe5DVbGoc5h8yzilkOBPDgdjLZ/DapoUOZ6+q2DboBbLWz8EHWxZhx5XTapQMXyUELIqARRGwXBqG8nLMT7mOhgv1kcWS7FWjqfE1AizNfPTdpWlIu1bA5c2JIfMGu+2LQNsIf5uN7ZYkv/+cjmwbpiXvQKGhhOVBAhZFwKIIWO6J6wWl+HbTGdzt4TmFMm+wgf/hGsOV6sWaHIemU+IwZvtF5BWXcYlzQu5K4Dv4TDKeXh9YI7Ay1eM6sG2QeYPfxK5E0o3LPLEELIqARRGw3LeQijaczYbvUqNtg6cg635pbK8FXJnaNjwzNxGxp7NNClyM2saFvGx8s3ONXVsGe3rGw3MKX40OwpITcSgu405TAhZFwKIIWG6GLLFt6Lnjgspi6dmWwV4vVqNJh/Db+jPIom1DnV4PRYZSTE3ZXWuoMp9T6CnbBsle/bo/HBfyOBycgEURsCgCloci4XoBXlh7DHfOdX/D+wOzbJuK1qRU2Mr/MMLTMrmjsA5x8PpFvLNlSY0b263pqSjPmI++vWk+Is+nokx5ePAFQcCiCFgUAcsDUWQox7TDV91u21DbxnaLWawpxjmFH688irNZRVzqahHZJUUYeWSrU8DK1LbBnXMKX1GO7YEYEr8RmUX5LBcTsCgCFkXA8mwcyyrEG+HHVRbrXh3MG6ytmk+NR+CBK6pRm4trzcqD6y4exfMb5uIhJ2WvKucUutF8VOwhPtm6FPEZFyv7DBkELIqARRGwPLa4io1U8Iks+CxONvZGubqxPVCyV3FOByxpeH9tUQri0/MqnxvD9rlHhS1Dl71haBfh71S4Mto2zMKzbmp4f2n9HPin7EJBKecNErAoAhZFwNLJQptVZEDnLWddPqdQbBka+sc7Ha5M+7EGbjqHbDa8O3TeS8vLsPJ0Ap5cF+B0uHKXbcMrFY3tHXauRlrWVZ5YAhZFwKIIWPpabLddyEHrZcm4y4UO7zJv0BmN7dbNR+PwZGAitlfYNjBsR2rWNXy0bUVFY/ssl0HW0+sCXFYqlNt9c+M8BJ9JgKGMfmgELIqARRGwdBYFpWUYeeCSC20ZEhyeN1gX2wZpePcLP4XMglIuezbPdwkmJe1UfVePuBCuXD2n8MX1gei5PxLp+YRqAhZFwKIIWDrtx0m7UYjXQl3Q8B5U83mDdVHLafFYcviamlPIXizLsffaeby1ebHTbBnszil0UcP7O5sWYEv6CZ5nAhZFwKIIWPqNkrJyzDhyFQ8uSFRQ5DRbhkDn2TI4ksWSOYXtl6fhVCZtGyzF9aJ89DkUjXZugivV8B4ltg2BTrZlmIOxCVuRX1rMk0rAoghYFAFL33ExrwRfRJ/GXU4CLMmENZjhvuyVpmZT4zFl9yXl9cWoyFSWG+cNhp5LxTPr5+ChSPcBVmXDu5MgS27ni+3LcCTzUkX2iueZgEURsCgCls4j8vRNtKyYU1hnW4aAI2g0Jc7tgCW9WM8FJWHPuRwufyaRnp+DDrtD6jxvsHa2DTPxrJPMR1/ZMBeBaXtRYCghWhGwKAIWRcDyjn4ssW3ouu0c7pBerPl1bGyf7v7sVaVtw6Q49I0+i5uFbHiXkOHHQccPqqZzd8OVpsecMKdQ/r77nlCcyb3Bk0rAoghYFAHLuyBr7+VcPLkqTZUK7/XwvMG6ANZjAQnYcDxLGarW99F0hzMv470tS/FvF5iK1mhO4bo6zClcb5w3GHo22ThvkEHAoghYFAHLmwCryFCGqfFX8MD82s0plHmDDd3U2G5vTuGXq48jPae4Ho9QKUdeaQnGJcZ6FKxu2TbMrJVtwysV2aveB6JwtTCXWEPAoghYFAHLO+PojUK8HnZclQpr2tj+4AzPwpX5nML5cVdVFqveoZXMZiwvx5ZLp/DqpgVus2Wwa9sQVTvbhg+3LMHea+c4b5CARRGwKAKWNy/OwMKUDDRelIS7g2pqyxCnG8AS24Z3lqbh6LWCern6XS7IRbd9EWgb4e+x3iuLDe81nFMo8wanJu9AoaGUcEXAoghYFAHLuyOjsBQ/xpxxfE5hUAIaTNdP9srUH2vYlvPILa5fcwoN5WUIPpeMp9fP0QVYmeqJqNkO2zbIvMGvY1ci6cZl4gwBiyJgUQQsb+/cMSr67E20Wia2DfYhS+YNNtIZXCnbhkmH8PTcW3MK60t/9LncLHy5Y5VbTUVrksV6xoEslpQSX4sOwopT8Sgp4yBvAhZFwKIIWLcJZOUUl6H3zgt2m92Ntgz6y17dcniPw6/rztSbOYVFZQZMTdmtO7Cq6ZxCyV79ti8CF/NuEmUIWBQBi6JuH8CSOHK9AC+GHFOlQqvzBj1sy2DXtmFyHNr4H0Fwcoax4f02zWJpT+tgxsUKW4YZuoYse7YNYssQeT5VlTsZBCyKgEVRt1UUG8ox/fBVPLDAsm2DNLY3nKZfuNKyWA9OPISPVhzFuazbe07hzeJCDD0cg4ciZuqmsd22bUOAsmGwNBJnWPwm3CgqYGM7AYsiYFHU7QdYEqduFuH9yJO4w0LD+4MzDusarqrYNkyLx5wDV2C4TX0bxIAz6sJRPL8hSPfZq1sN79XnFL60PhCfbV2KuOsXactAwKIIWBR1ewKWtriFncpC8yXJVbNXat5gvNcAlvRivbQgGQcu5lZ5brdLXC7IQZc9YWjnYcf2msrctkEAyz9lp7JlYBCwKAIWRd22GazyCtuGzlvOGkfozDc2tjeY7j1wZQpZAzadw83C22dXmhiKSp/SspOH8eS6AK+CK9HjFVkszbG9065gHLt5jfhCwKIIWBR1+wOWaPvFXLRdnqIg64HZh9FoSpwXAtYhPDUnEbFnsm+r85OcdRUfbF2uSoOPRM7yOsh6el2AsmV4c+M8BJ9JVMBYzuIgAYsiYFHU7QxYWhSUlmHMwcu4X2wZpnlf9qrSG2viIfyw9gSu5ZXcHufFUIIJyTvxcNQsPBI1W331Nj26bjaeWx+IXgcikZ6fTXQhYFEELIqqP4AlkZpZiLdWpKHBhINoMvGQV6rxhENoPvkQlsYZG9693Xx0T/pZvLbGH60XjUTbxaO8Um0Wj8STKydi5Yl4YgsBiyJgUVT9A6wSQxnm7k1Hqwn74TN2n1eq+dh9aDJqD9oHxuH0tXwFWN7KWNcKi/BLzBY0GdIdjX/+BI1/+dT79Kvxa4ux3TF233rklxQTXQhYFAGLouoXYElcvFmEDitT0Wz0HjQfs9cr1WRoLBr324JJG0+ioMT7Gt7L1bzBcoScPIMnfg9Hswmj0dCvPRp0ehcNvUwNOr6Dxj0+Rgv/XngjeDr2Xzpd8STZg0XAoghYFFWPAEvNKUzLwONTD8LHC+Gq2YhdaNR/Kx7ovRlPjtmJXScyve74S6Tn5eP7TbHwXRqM1otWoMmAbkZo6fyed8nvfTQf3RVtFw5H6wXDMGhnGG4WFRBfCFgUAYui6h9gZRWUolf4CTQdtQctvAmwRu9Bk8GxaNA3RunBvjHovSYVWfklXnX8iwwGzEpIRdvlIWizbC3aLA9Fy5kz0KjH594FWZ3eRdM+X6P1nEFot2iEAqxnlo9H1KlEZZzKIGBRBCyKqjeApUXchRy8PDsezUbv9RrIajp8Jxr221IJWA/02Yx2w2OxLvGqV/VixV/LwJth0cbs1bK1Sq2WrEazYb3RsPO7XgNXjbp+gJYTf1bZK1G7hcPRasFQdIxejCt53E1IwKIIWBRVDwGrqLQM/jvOw1cax70ArnxG7UHjgdsq4UrUsF8M7u+9GZ8EHsLFG4VeQVh5JaUYdSC+EqwqtTwELQPnovGv36Bhp3e8ArCaDfwebYKGoO2iEZWQJXp0yWgsT9lPPywCFkXAoqj6BVha9ebYtXx8uDBR7crTffZq6M4qcFUJWX1j0HTAVszbeV7XZalyNW8Q2HD2Ap5dE1kle2Uqn/Ej0LBLe90DljS2t5rZrxpcta3IYn0YFoCjmZcrnjshi4BFEbAoAlY9CgGSlfFX8NCkA7pueG82cjca9t9qGbD6GUuFb0zbh9RLubo+3pfz8tF16260XBqseq+qA1YIfOcvRpM+HXXfi9V8RGe0XTCsGlyZauKBjcgvpW0DAYsiYFFUPYyMvBJ0Cz6qX9uG0XvRZEisRbiqoj4xGBSahrwifQ4ZFluG4BOn8fjv4Wi1dK3F7JVWKmwxeQIadf1It6XBJj0/R+uAARazV5qk4f2tYH/EXTlLlCFgUQQsiqp/IVW1mGM38PiUg/DRYcO72DI07L/FLmDdX2HbEHsso7Ikp6c4nZ2Dj6JiVGmwzTIbgKUa3leh6ZBf9dfwXqWxfYTN7JUGWf1j1+JGYR5xhoBFEbAoAlY9AyxpvC42YHj0aV3aMjQetN1+9krbVdh7M3qsTEZGbrFuAEseR6HBgEnxiQqe7MFVZcP7rFlo/PMXOisVvoum/b9F67mDbWavNLVZMAxPLRuLqJNG2wY6NxCwKAIWRcCqV4AlkXw5D+8EHUFTHZUKmw6rastgT+KL1XLwNqzYf9E4p1Anx/bAlWt4IywarZYF24crE9sGn5H9dZS9eg+Nun8I36m/OQRXmm2DZLG6bFyG6wW56niQsQhYFAGLImDVqyguLcOsXRfgO26fLhrexZahkZktgz3JjsL7em1G+1kHcS5TH27iN4qKMGD3QbRyEKxMs1i+QQvQpNcP+shi+b2H5sM72W1st6RHFo/C0uS9KC0rQznTWAQsioBFEbDqW5y7UYgvlyYrh3fPzxvcUSO4MlXTAVswe9sZlBg8u5iLLUP4qXN4clW4VVsGe2o+cTQadfnAs/1Y0tj+62doPau/w9mrqrYNw9A+dDZSMy4RawhYFAGLImDVz1JhRNJ1PDbloNq9p0dbBkd7sf4zYTf2n77h0Yb3y/kF6Bizs9ZwJVmsVguWokk/P89msfzeR4sx3WoMVpW9WAuH49+LRmLaoRgUlpYQbQhYFAGLImDVP8jKzC9Bj5BjyrbBMzsKq84brK0e7LMZ/dam4mZBqUeOY2lZORanHsfDK0JrB1emtg3+09Go+yeemzfY7xtjY/vCEbWGLDEffWPNdOy9eIpoQ8CiCFgUAav+AZZo75mbeM4/ziPeWM1G7HTIlsFuFqtPDB4bvQNb0q575BgmZdzA2xEbHbJlcKThvdnQXu4vE3Z6F427fwTfyb/WqjRY3bZhKHpvW4OswnziDQGLImBRBKz6F4WlZZi89Zz75xSOrj5vsLbSGt5/WHgEV7KL3Hv8DAaMP5igwKqucFXp8D47AI1//tK9pUKZNzjoR7SdN7TOcNWuolT4zPLxiD6VbLRt4FuNgEURsCgCVn2LtCt5eH9egmp4d0upcOxeNB2+Ew36xTgFsDQ1G7gVi3efd6ttw470y3g5ZH3te68saeka+IwdioZ+7d2TyZLs1S+foNXMvk7JXhkha4SybegQvRhX8rP5JiNgUQQsioBV/0J24M3fdwltJ+xzky3DbjQasNWpcKXNKXxv5gGcvJbvFh+mawWF+Gn7HrRYssZ5cKV6sULhO2+R++YUii3DqC5OAStzPbR4JBYk7kJJmYFvNAIWRcCiCFj1Ly7nFKPzqjTXN7w7Om+wlqVCAa2x60+gsMTgMsAqrxieHXryLJ5YFYFWzsxemdo2TBpXkcVyw7zBwIEuASxpeP84LJC2DQQsioBFEbDqb2xMy1C2DT4unze41SWApc0pfGrsTuw8kenSY3UuJxdfb9yOli6CK+nFarVoJZoO/MmFWax30ajbh2g56RenlQYt2TZIuXDKwc0oKC3mm4yARRGwKAJW/QrJymQXGdAn4gSauWgQtAyYbjx4u8vgynSMTu81qcjKL3HJcSoyGOB/JMXxeYN1KBXKnMJGPT5X42tcAVnNBn2PNvOGuASuTM1HX101BbsunkA52PBOwKIIWBQBqx5GQnouXgs87JJSobGxfYvLAUt6sdoNj0XEkSsu2cF25FoG3gyPdootg90sltg2DOvj/CxWp3fR6KeP4Dutl8uyV+ZzCvtuX4vsogK+yQhYFAGLImDVvyxWUWkZZuy4AN+xnp83WCfbht6b8VGAcU6hM0fiFZQaMOrA4ZrPG6xLw3tgEBr/9q1zIUsa20d0rtW8wdqVCofh6eXjsfFMCmcUErAoAhZFwKqfcfxaAT5emOTUOYVq3qAbslfmtg3zd55zmm2DgMH6sxfw3Joo59oyONLwPmEUGnX9wEnZq/eMje0BA1yevTLNYkmp8PsNi3AxN4tvMgIWRcCiCFj1LwRIVh2+ikcmH4CPExze1bzBAVvdClcNK0qFr03di5T0HKccl0t5+eiydbcLG9ttlArnL0GTPp2ck8Xq0h4txnY3wo+bMliaHlk8Stk2lJYZ2ItFwKIIWBQBq/7F9bwSdAs+hqZOAKzGLrJlcFRDwo4ir6j2PkwCAobycqw5cQaPrAxzX3nQfE7h1Mlo1PWjuju29/8WbdS8weFul9g2fBo+B8cyr/BNRsCiCFgUAat+9mNtOX4DT0w9qHb/6dWWwZGG96fG7kLssYw6HY9jWdn4ICpGZa/aeAKwZE7h0jVoOuS32ru7i2P7Tx/Dd2pPt5UGrWnC/mjkl9C2gYBFEbAoAlZ9A6xyIK/YgDGbz6L5mH212lEo5cVGg7Z7NHulQVa35Ym4llNcq4Z3sWWYFJeIVss8B1daFqvlbLFt+KLWpUKfIR3QxgnzButq2/DKqinYffEk32gELIqARRGw6l8GSyL1Sh7eCUpQtg16tWWw64vVZzN8h2zDyv0XVX9ZTY/BwavX8XpYtGdKg+Zasho+owagod/7NW9s//Uzp84brKsB6YAdIcgpLqQzFgGLImBRBKz6F8WGMgTsugjfcftqVCpU2asBWz0OV1rDuzi8fzj7IM5n1syH6XphIXru3AffpTqAq4oslppT2OvHmmWx/NqjxZjuHgcrUz25bCyiTiWirLyMkEXAoghYFAGr/sX5rCJ8vyK1Rg3vTYbs0AVcmapx/y2Yuvk0ikvLHHreYlIafkrmDYar8qAuAKtCPhNHo2GXDxzrx+r0Lpr2/gpt5gzSDVzJ+Bzf+UPx/fqFuJBzg28yAhZFwKIIWPWzVBiVnIHHpzo2p9Bn5C40GrBFd4B1f5/NeHbCbuw7nVXluVkLsWXoFLPT7Z5XjmSxWi1Yiib9uziQxZJ5gx+g5eRf0XbRcF1lsNouHIbHlozG0uS9MJSV8c1GwKIIWBQBq/41vGfml+CntcfQZOQetLDl8j7a87YM9tR/bRqyC0ptPueSsjLMTzmGh1eG6guuTG0bZvij0U+f2c1i+Qz+EW3mD9UZXBnVesFQfBI+B2kZl/lGI2BRBCyKgFX/AEu058xNPD8jzqb5qNGWYYtu4eqB3pvx2Kgd2JRyzWLfT3mFkjNu4I2waI/aMti1bVBzCnvbtmXo8Qla+ffWRWO7tWb3NguGYTxtGwhYFAGLImDV11KhzCmcuv08fMfu07Utgz3JnMKv58UjPavQ4vMsLDVg/KEEtFkWolu4Mmax1sI3IBCNf/nKcqnQ7300H+nndrf22gyCfm31NOy/fEaRPGcVErAoAhZFwKp3kXYlH+/PT0CTUXuqeWM1HSbzBmN0D1janMLFey5YtG2IvXgZL61dj1ZL1+obsJSC4TN2GBpZaHhv0vtLtA4cqNvslWnDu0BWv9gQZBcVcEchAYsiYFEErPoXAiRLD15G2wn7qzS8+4zarRtbBkfnFL4z4wBOXcuv0vB+Nb8A3bftQcsla3QOVloWK9Ro29CnY9Usll97tJzQQ4eN7dZLhY8vHYuIE0eYwSJgUQQsioBVP+NqbjG6rDl6y3x0tNgyxHoFXJlClnwdHXUchSVlkESWzBtce/KM0ZZBbzsH7aj55HFo2PXDSlPRpgO+Q5ugwV4BV6YO7x02LMbFXNo2ELAoAhZFwKqnDe/RqRl4fMoBlcVqNnK3R+cN1mWEztPjdmHn8Uz13M5k5+Kr6G26bmy32vC+eCWaDv4FDTu9g8Y/f4xW03ujnc5Lg9WzWBW2DSl7UVpWxkIhAYsiYFEErPoX2YUGDIw6iWaj9qDJ4O1eB1eVY3T6bkavNSm4lleEGQkpXgdWpqXCljNlTuHn8BnWQdkytNF26VVI74DVTmWxhuLDsAAkXU/nm4yARRGwKAJW/YyUK3l4xf8gGvSJQcM+m71SD/TehHZDt2P81jS8Hb4RvksqGtuXep9aLV6F5hOG4OHZA/Dk0jF4YsnoSj22eBTayW7CBUNvab7+1Kbi67i963E1Lxs3i/KRZUXysxuF+biSl430nBu60iX1NQuX826iyFBKwKIIWBQBi+F4iG3D9PXH0aLHOvj8FIXmXql1aNo9HM0GL0HruWvQdl4o2s4L8Uq1mx+Gz0PC8PaS8Xg8YCCeDBxcKfn/1jN6w9e/F1pVyHe63tRTfW05rSeeDhyM78PmotO6hegUZUXrFqJj1EJ8FToHn4XMVvpcR5LH89W6BYg4m6rGLhGwKAIWRcBi2O/Fqvh6PD0bn46LhU/nMPh2CYevX5gXKVw95gadF+DvXUagybgFaBcYirYBIWgrX71IrQNC8Pqyjdh74TLGbQtB80k/V1GLST+jpRfJZ1wXNJ3cAy1m90eLANtqqTRAd/KdMwjNlo3FV9tW4YxnG/d5vacIWBQBy9sgq6ysHMG7z+HxnuvRwi8MLbuEe5Ei4NMlGHd0nog/d+yPO3uOR6sZq9F2TphXwZVAYZvAUEzak4iSsnIkXDqLtxeOVWDlO/lXtJz8i1epxYSf4DPODy3Gd0WbWf3Qdu5g25ojGlTxVQ8apB5XmyWj0WrNVLReOw1Tknah0FDqqcZ9Xu8pAhZFwPLGuJ5dhO4B+1UWy9sA6wG/ufhLx0H4c8cB+EungWgwLABtA7wLrloFhODz4G04dSNHnY8SgwGB+zah9ZTfvA+uJOM2rit8xvrBZ0xntJz8szJLbTNnkHdp3lC0+n0ifIOnosWaKXhl/XzEZ6RXjmIiYFEELIqAxXDIumFb4hU81WsDWvh5D2A19VuJf3QaqbJXAlh/7tAf/9tjFFpMXYF2XpLFahMQgifmRWJ1ymllAqu5oF/OycJ3q2eh+aQe8PUiwGo+obsRrirUfFwXNUvRq+Bq7mC0WjpGwZWoVfBUtAyeikGHNiG3pJiARRGwKAIWw/FSYX5RKcasSoRvlwjV16R3uGrRJQz3dJ5hBCtTdRqI+wf7o03AWq8ArFazQ9B13W5cys2vckakqTo85SAem9HP2H/lDdmriT1U75UpYEkWq8XE7mgd0N9rAKv1guHwXT25ErB8KwDrifAArDt/1BMN77zeUwQsioDlzQ3vKeey8PaIrZUN73qFK4HAxn7L8LeOw29lryr0pw4D8LeuQ9FswiJjw7ue+64CQvH8ovXYfMqyZ1RmQS56RS1Bs4k9dN+L1UKyV+O7VYUrE8kOQ6/JXi0fVwWuNDVfMxkdd67FxfxsAhZFwKIIWAzHo7i0DIEbjqN190iVIdIrYDXvEow7O03Cn8zgyhSy7u4zCa1nBesasOTryJ1HkF9SagF6jdh78MJJvDpvJHx0nsVqMfEn+IztYhWwBL5az+qn/+zVopHwXTPFImC1XDMFj4TOxLITh5VTPQGLImBRBCyGw3ExIx8d/PfouuH9Qb/5+GvHwRbhStNf/Qaj8Zj5uoUrsWV4Y/lGHL6coYYjWys6FZQUY2JsOFpN0XMG62c0H9/VKlxpajnlZ7QJ1DFgBQ1Bq5UTLMKV1oslWaz3Ny1Byo0rBCyKgEURsBg1i6gDF/CEsm3Qoy3DGvyr07hqpcFq6tAf//plDFpO/12Xtg3/nhOGwENpKDYY7DZNp11Lx/uLJ8BnUg+d2jJ0twtXxob3rmg1s69+s1eLR1mFK3ONS4hFQWmJuxreeb2nCFgUAet2iIycIvwy94CxF6urviDrvs6B+HPHgbbhyqTh/YFhs5XHlK4a2wNC8H34DlzMznPofJSVl2HF4Z349/TeOrRlsNDYbkMtJvfQpW1D6/nD0GrVJLtgZdxROAUvrgvCwWsXmMGiCFgUAYvhuGWD6OCJDLw4YBOa66bhPQJN/Fbg7x1HWO29qtaL1XEA/tljJFpMWa6bLJbRliECa1PPwuDgbjT5ret52ei0NhA+0vCuo3Jh8wndHIYrpXF+atyP7hrbl411OHulNbz/sjcKN4oKCFgUAYsiYDEc31VYVFKGyaEpaNUtQke2DP6OZa7MIOue/lPRZvZa3fRe/Ry9D1fzCmtwPoy2DeuPxuPJWQN0Y9tg0ZbBkSyW2DbM1o9tQ+uFI9DKzJbBnqTh/bGwWQg+k+QO2wZe7ykCFkXAup0i7cJNtB+9Fc06hXo8e9XQbzH+2mlorQDrb12GoOm4hbrIXr26LBq7z1+tYo/haOQUFWDY5tX6yV6N71ZjuKpseJ/2m36yVzYa221JHN5/iA3G+bybBCyKgEURsBiOhziLL9t2Gg/1iPJgw3vFvMFOEx0uDVpqeL+r90S0nrXGw75XIRi3KwEFpYZan5P49NN4c8FoVSr0uC1DLbJXt2wb9NHwbsuWwW4WK3gq2oX4Y27afhQbSglYFAGLImAxHI8rWQXoOns/mvt5qhcrAg/6zbNry2BPMqew4YhAj5YG31m5CSnXsurmVWYoxbSdUZ7twzKdN1gHtZji2TmFrYOGwLdi3mBtJA3vPmsm440NC5GQeYmARRGwKAIWoyYN7+WIjkvHU709MacwAs38VuF/O42xb8tgr1Qocwp/Ho2WHppT+FhQBFYknUJpWXmdt/afvXENX/4+Hc0n/ewRh3dHbRkcsm2Y0cdzgLVkdK3hyhy0Rh3eikJDqatsG3i9pwhYFAHrdozcwhIMWByvsljuzmDd23lmncDKPIv1wNBZ7s1ezTHOG+wYuQsXc/KcAL3GhveQ5P142L+vAh63DoOe1KNOpcGqcwr90GLST2gdMMAj8wZr2thuq+H92chAbL10SgFWOQGLImBRBCyGo5F0NgtvDo1xW6nQ18SWwVmAJVmsv3cbjmYTl7jNtkFKg08viETEsXNOXXwz8nLQLTTIaNvgJY3tlm0buqClv/vnFFqbN1iXUmGnnSG4nJ/DDBZFwKIIWAzHQ2wb/CPT4Ns1wk22DCG4q/OUOpcGLUHW3X0nu21OYZvAEAzZFofc4hKnn5NdZ9LwwpyhaO4mh3dlyzC2i3MBS0qFbrZtULYMtWxst9Xw/mjYTKw+ncgMFkXAoghYDMd9sSROXs7Bl5N2umVOYYPOC/DXjkOcDljGOYVD0GTcApf2Ymm7Bl9fFo2D6dddcl7yioswfluo2xreHZk3WGvbhqm/oI07Gt7tzBusi5qvmYLPt67EyewMAhZFwKIIWAzHIUua3kP3nsfjv8mcwjAXlQbD4eMntgwTXAJXWhbrjt/GodWM1Wg7x3W9V20CQjFhdyIKSw0um1mXcOkM3l44VmWxfF1ty+AiuLpl29DHPfMGnZy9MteUpJ2q4Z2ARRGwKAIWw+G4nl2En+YccFkWS3qvHug8B3/pOMglcGU6p/DBYbNdlr2SeYNfrN2OUzdy4Cq6kob3kjIDFhzcijbTerpw3uDP8BnX1aWAZZxT6GLbhnlD0aoOtgyOmo++umE+4jLSlQN/uXNOPq/3FAGLImDVh9iedAXP9412SRarqd9K/KPTqNqbitbAfPSfPUahhQtsG9S8wfmRWJ1y2mjL4CrAqoCsyzlZ+H7NLKNtgwvKhc6yZXCk4d1lcwprMW+wtg3v0o818OBGZJcUOYuteb2nCFgUAas+lAoLiw2YEJysynm+Tp83OMO1YGWWxbpvkL/T5xT6zg5Bl3W7cSm3wD3npLwcUamH8Ih/X6fPKaztvMFaZ7Emusa2QWwZfJ1ky+CIHg+fhYhzqercELAoAhZFwGI43PCeci4Lbw/fokqFvl2dYyrayG8p/tZpmMt6ryz1Yv2ty1A0m7DIabYNYsvw4uL12HI63a3nJaswD33WL3XyjsKfXdrYbk2+03s6P3vlRFsGxxreJ6PDzrVIz88mYFEELIqAxXA8ikvLELTxONp2j3RKqbC5mjc4yfWlQYtzCic5xbahXYUtw+idR5BfUur2cxJ38TRenT8KPk5qeDfOG/RzO2A1n9ANrWf108W8wbqYjz4UOgPLThxWxrAELIqARRGwGA7HxYx8dPTf64SGd5k3OL/ClmGA2/UXv8FoNDqoTlksbd7gm8s34vDlTFUaKnfz+cgvKcbE2HDnjM+Z5Jnslebw3nKKc2wbWruhsd1WFuu9TUuQeONylewvAYsiYFEELIbdiNx/ocK2ofZw5dNlDf7VeZz7s1cmpcJ/ypzC6SvrBFkPzwnDnENHUWwoc1bvTY1Lt8eupePjpZOVw7tXNLbbmlPoBNuGVktGeQSuTDU+IbbCtqGcgEURsCgCFsOxuJFbjF4LDsHHr7a9WGG4r/Nsj4CVecN7XeYUtgpYi+/Dd+BiTr5Hz4eUo1Yd2YWHpvepW/ZqXFePApbRtqFHnRreW88fBt/VkzwKV1IqfCEqCIeuX6zLqCRe7ykCFkXAqlcN7+XGHWyHT2XilcGbVRbLt4bZKzVvsNMItzW229I/fhqJ5lOW1TiLJaXBJ+dHIiT1LAzl5R4/L9fystFp7Rw0kzmFtbBtkB4oT8NVpW3D9F66tmVwxLZBvLG67w5HRmGt4ZvXe4qARRGw6h9klaOoxIApYalo1S2ihrYMobi7k7/ns1cmuqf/1Bo1vGu9V702HcD1/EJdnBPJYm08dgRPzx6ovLH0bMtgf06hZtswWNe2DPayWI+GzsTaM8m1NR7l9Z4iYFEErPoaRy9m48Mx2422DQ5mrxr6LfJYY7s1/a3rUDQdvxDtAsMcNBUNxavLorH7/NW6NjI7sR+rHLlFhRi1ZW0tGtu76Qaubs0p/BVtAms4b3DFeF3AlanD+/exwTiXm0XAoghYFAGLUbOsyeqdZ/HwL1EO2DZIY3sw/tVpoi5Kg+a2DXf2moDWM9c4DFhjdiYoW4ZynZwL7XEcTj+NNxaMdrjhvcUEmTfYRXeA5aPmFPbV1bzB2qjN2mmYmbIHRTWfU8jrPUXAoghY9TmuZBWi2+x9Dtk2POg3D3/tOFh/gFXR8N5gRKADje0haL8qBqnXs+rSwOyyKCotgf/u9Wg99Te0sJu96oHm43QIVyZzCh2ybZDslYdsGez1YjVfPRlvRC/EkcxLBCyKgEURsBiOZ02kv3v9wYt4sud6tPSznr1q6vc7/tlptMdsGRy1bWgxzfacwseCwrE86SQMZeW6PS8Xb2bim1UzlMO7r45tGezbNnRBqxm9HbBlGK07uDLXyMNbaprF4vWeImBRBKz6Dll5haUYtiLBqi+WzBu8t/NMXYKVeRbr/iEz1OBmS7sKJXvVMWJXpS1DuS7PR7kq3YYm78cj/n3s2DJ00TVg+YzpjBaTpOG9v1c0tltteA+egmciA7Hl0qmaNLzzek8RsCgCVn0HLKg5hTfx5rAtaG7mjeWr2TJ0HKF7wJIs1t+7DUOzCYurAZbsGnx6QRQij513u6Fobc5JRn4OuoYGqV4sSy7vemxst27b0FM38wZrXSpcMxmddobgSkGOo3DO6z1FwKIIWAzjnMJZ646a2TZEoHmXENzZaYo++66s6O6+k6vZNrQJDMXgbXG4WVjsHaVblGP32aN4JWhEtWHQat7g2C7eAVhqTmF3tJ5dfU5h64UjdNnYbk2Phc3CqlMJKsNIwKIIWBQBi+FwnLmai2+m7EKzzqGVtg0N/Bbot7HdYhZrAP7mNwRNxs2v7MWS7NXryzbiQPp1rzof+SVFGL89zJjB0ryxPDlvsC62DeZzCqWxfeUEr4ErLYv12ZYVOJGdwRIhRcCiCFgMB7MmFR/Jw/edx2MVcwqbK1uGCV6VvdJsG/712xj4+q9SkCU9WVP3JqOw1IByLzsviZfP4c0FYyptG5rrvLHdahbLzLZBr7YMjoDWpMQdKDCUELAoAhZFwGI4Hteyi/BT4AFl2/CA3xz8pdMgBS1/8SZ1Eg1Eg+EBKnv1Zch2nM7K1aUtg71SYWmZAYvjtuOh6b29NntVmcXSbBvmD0OrVZO8Eq7EfPT1DQsQfz3d3uuJ13uKgEURsBhVG973Hb2Op/uF4K8dhuOPHfp7p37sh793H4F2/r9jVcoZlJaVe132SsssXsnNwo9rZqPpuC5oNqYzmnqpmglk+feE79IxahSNt0pKhX32b8CN4gICFkXAoghYDMej1FCO33enoO/v69B/9Xr0W7Ue/b1O69B31TrM3HEIV/IKvBp6pal615lUjNsSjLExa7xYqzEuNgzj47diQkKs12r8ke2YkbIHF/KybWWxeL2nCFgUAYthCbLKUFBc4vUq9sK+K0tRVl6GwtISFJYWe7lKUGgo9WoVVXw1lJexB4siYFEELAaDwXBj8HpPEbAoAhaDwWAQsCgCFkXAYjAYDAIWRcCiKAIWg8EgYFEUAYsiYDEYDAYBiyJgUQQsBoPBIGBRBCyKgMVgMBgELIoiYFEELAaDwSBgUQQsioDFYDAYBCyKgEURsBgMBoOARRGwKIqAxWAwGAQsioBFEbAYDAaDgEURsCgCFoPBYBCwKAIWRRGwGAwGAYuiCFgUAYvBYDAIWBQBiyJgMRi1j/Ly8mr/X1xcjIyMDJw4cQIpKclITU1BSopRp0+fxo0bN1BSUlLlb+Xf5rfFYPBaTxGwqNsOsGQRjI7egPDwMISHh1tRGKKiInH16pU639+lS5ewfv06m/cXFhaG2NjtyM/P57KjE7gqKytDdnY2EhISEBERgenTp6Jnz9/w1Vdf4M03X8fLL7+IV155CS+//JL69zvvvI1vvvla/c60aVMRGhqCw4cPIysrS90Wg0HAoghY1G0NWGfOnME777yFxo0bwsenCZo2bYJmzW7J9P9//31lnRZHSVwsX74MrVq1RJMmjavcj3ZfPj5N0ahRA/z8cw/k5OQw2+HhMBgMCsJXrVoFP79OeP75Z9GihQ8efPB+3H33nbjzzn+pr5Z01113qK8PPHAfmjdvhmeffRqdOnXAtm1beWAZBCyKgEXd3oCVl5eHHj1+qlwI77vvnmq6//57cc89d6rfq0tWSYCpX7++uPfeuy3ej0gegyzey5YtUzBHwPJc1urKlctYtep3fPnl52jSpJF6jci5k9eDSM6Vqex9XzvvgYGBPMAMAhZFwKJuX8CSRbS0tBQLFsxXWSNtITSXLJL33nsXXnvtFZw9e7bW9yd/+95776iF2tr93HPPXXjxxf/g5MmT7NfxEFgZDKU4ePCAyjZJ5knOiZwfAV9TaJLvS5ZKvmpwrEG6fE/LbmnnVr4++ujD2L9/Hw+0Ds6zzt5bvN5TBCzq9mtyP3LkCJ566snKLJYl+JFFs02bVti8eXONL87a78bGxqJ161aVC7YlSZbj119/QUFBAeHKAyEZylWrVirI1TJOplAl35PzJyXl//znOXz33Tfo3bsXhg4dgokTJ2D8+HHq37169cR3332LV199WZV95XbuvPMOfPTRh7h8+RIPtA5Kv0VFhXrqh+P1niJgUbcXYAnE3LiRie7du1nNLJmWfaRhuaalO/n9wsJCtfDKAm0L4qQUtXTpUrUAELDcGwUF+ZgzJwCtW/tWgWBjBvNulcF64onH0aNHd7VRQXYPZmZmIjc3V4GZnGOR/Fu+J71b0uMnGxZGjBiO559/DmPHjlW7D3lu3RvyHpQPLVeuXEFcXJx6Hw8Y0E/9PwGLImBRBCwXhjSfC9xoPVeWAEvKQZKxkIXT0QVSy3ZdvnxZ7SyT23jggfst3ocs6k8//RQSExO4Iro5BIzmzp2jNiCYQ7CA9+OPP4rRo0epxdladtFWZlNK0SdOHFfAxd4690dSUiKGDBmMjz/+EO3atVXvNdntef78eQIWRcCiCFiujLi4Q3j++Wdslu8Evh56qB327dtbpfTnCGDt2BGLdu3aVNyW5QyWwNdPP3XHzZs3uSK6tefKoGwU5PyYA7ZkrT744H1VGpYMl6XSr6MlYobnYuHCBer9JdI+zLz++qu4cOECAYsiYFEELFfG9evX8f3339kELFGDBg9g/vx5NS4RBgTMrmySttZ7Jb06wcFruBq6OY4cOaw2MFg69z/++L0yDiUkeTtgza88v9pmktdeI2BRBCyKgOWWHo2pU6dYBSDTMp7YNYjppKMhVhBduvipv7V2+/KzN954HcePH+dq6MbQrDMsZSvFKJTnw/szlKaApW1a0ACLJUKKgEURsNwQ+/fvt1gmMpX047z11hs1Wnjld5977tkqHkrVbSDuRp8+vZCbm+PwwmE+gkVKXdJArUnGtJjvknJnJkbuWx6D9nhs7diy1L+k2WiYPidRaWndx89ofyOu7G3btq48N9riKzsExarBE0BgKkeOU21ux1mPz9pt1+R3avN6r+nfLFq0sBpgmZYIHX1eBCyKgEURsGqxcEjv0w8/fG+zEV0W4rZtW2HLlhiHb3vJksVo3LiRTXAz7h5cUqOFQ+BFFgixf1iyZImyCZCditLMO3jwYIwcOQKzZs1AWFioGvEiu9uMf+v4MZEdlseOHcOxY0crvprqqNqFZQ5O165dQ0zMZsycOQPDhg3F4MGDMHLkcDUqxhzytH/LV2keP3fuHPbt26fGBQUFBWH8+PHq+ZhKms2lIT0yMgKJiYmVjvc1XRSlLNy5c8dqpcGmTRsrbzSBO3cutAKP8ho0lXyv6jkx/t7p06ewdesWNXJJzq9sjNDOQ1FRkRrJY35b0shfl5DXm/ltiuS8mYO17KK89Riy1P+bvk5MQUbOX1pamtptGRkZqZ6PPC8ZYRUfH69eY9quWkfOh/iYSYZZ7lfuPycnW5XozQFLRhulpaWqn1d/Xlnutkrh9Z4iYFG3L2CVlRkwe/bsag7cVWV0XJ8+fbpagO2FLCzSuG7PXFQyJjIw2JEsU0lJqcqKTZ06Fe+9955qvG/atJHq8ZLHJhCoeTg1bPigGu0iGTSZi7dz5w61ADtyPOT5iZO57LZ64YX/4MUXX1D+UEa9oGwHBOry8/Mqf19u/4cfvlNZoYYNH6h8PPI4ZNSQ+fOTRfvq1auIiopC//798Pbbb6odey1aNFfmr1p2z1Ry3ORnLVs2x3PPPaOOryzGjpZttfvfu3cPHnvskcrSrXYuvv76KwWJ7o4dO3agY8cfVd+Xpq1bTcfqlKuS1uTJk1U5WbKtzZv7qDFLAtRyXuW5ySYMAUf5e/nAIBJPrrlzA1W5uraxefMmdOjwY+VtiuR+5Pumx1V22U6YMF6VWH/88Qd8++3XCorF0sIUwgRwpeewa1c/9Zp66KF/q3MqvYg+Ps3QqpUvnnrqCXzyyUcICAhQA7QFtOyd15MnT+DXX39WPZXacRSYMv2AI/+W+/rii8/QocP3VZ6T/P7333+LZcuWqNcnAYsiYFEELCeUPnbv3o1HHnnIpl/VXXfdiU8//cQhD53U1FRVirAHWD17/lq5QNpaPGThnzt3rjKw1EwvNZiytvNRgxzJzMkiNnbsGLuO9FrJUbJI2mM0Bx25vW7duqoFVbIqAmNi2GrMFFR9TI0bN6gGWJKtmjVrJj766AO1oMoxMn0+tjJ+5s/L17cF+vTprTIhjtggyMLp7z+t2m1K9koyie72IZP7koHi2rHWFBgYUAkkMsNQbAZMz4fmGi/GppKhktuR15wAuzjJa7dzxx3/qxr5JetYmxAw++mnbup2tNuU2//3v9tiz57dVc6rGKnKOf3f//2Heoz/+tc/Vb+TnG8ov7ECBcRff/1llRFE2vk2HR2lvcblOb/11ptYvHhxFVCz9B45dOgQ2rRpXemybz7iyPR8az83lebQL8Bf16wfAYsiYFHswaoI8auSxcFaQ7q2uEn24ODBg1YzTtr3NmzYoBzgrfVfyUVeMhAREeF2+1WkLCQgJouSBoD2mvLNLQfk/uRrhw4/4OjRoyorYivEvkArb5rP2JPj0LFjh4oMVCQeftg6mFoCrJCQEJVF0LbO1/T5mJ4T7Vh++GF7VVayF7JIf/hh1fMsi6sMc05IOOKRLmcp9cq5lfMjksckmSCBPSmfSdbQ/PgaM3z3KDd5DdAFYLTGfdNj2qxZU6xevbpWj02OqQyr1u5fHp8cO8n4SJbWvET8xRefq+Mpvyd/I8AnxqzSYyjlOvkQYz6CSIMpgXPTx236epPsloCPlMYt9exBWa7EqduXv5FdvyLteJq/buT72u+YSn4mpW0CFkXAoghYTsoiyPgMyfDYyp4Y7RoeVH1A1vp0jLdVhEmTJlqFBm3RePnll1T5w1ZI2UPKPNqsO1u3afrV2s+l1CnlGy2rYC0E/GQsjDkgyu3IAvrtt99g7969asairV2SlgBLFu2nn37SKnzaeh62Rg3JcOZTp07afF6S5ZCs13333fpbychIlsZTPmQCUXKsTYFRSrCpqSmVMyxNf3Yrk3gnevbsqV5vWvZOMkQ+Pk1MXsdGo9zOnTtZzQDZ2qwwb16QAg/T94Vk+6QPzvz1L4AnpUM5nho4PfbYozh8OF6VKaVkrb1W5GfyvOS2xCVfXg/aRhMZsG56f7de+/ejV69eCuwtZ7AOqpFUWgZPnre1DJYxa3VHtQyW/C0zWBQBiyJgOTmkj0gu0LZ2/Wl2DVI6sZx1Klef5KWfR1torJcHf7PZG5ORcV0t/NqiYC0TJguSaYnDnqeXaMyY0dWalE0jPNw6YMntS7ZPxgxp2TFr92MJsCTzIf0u8rhNj4+xPCTZjLurlHC0JmV7z0l+Z/jwoaqp31opePHiRaovzPRv5DkEBc312D59ae4XJ/lbMHEv+vbto86RloHRnr9kRV966QW1o/X111/D1KmTqzTEX7t2FZ9++nGV0rQcv4cf/rcC4pqEAJn0SZn7SL377ttIT0+32Kwvv6+97uUxt23bRn3YkJ43rRwowCYfLuT5iZGrbMRITk5Su3llsoIM25ZePnktmJ9fOXcy99HSORbwknFT8gFIStziWye3ZVqGlH/L4G15TAKPct5NJX+7e/cumz1fBCyKgEURsGpRJvzqqy8rS1eWwehu1Vslo08sWSZIyAVaPo1bK5tp5UFp9LVmUyCfoCdPnqQWI1tZGyktyYInpSGZe9e9e1dV0rHVy6QtMlu2bLFa4rSWwdIev8ztEyiwNWLICFgNLTa5i8O2sUR0b2VvT4MG96vSoZTr3n//PXz55ReqnPfMM09VlkdtgZb8XDIhWqnQkp3F8OHDqtyGcXdoa8TExHgMsCSrJj1Nt47bfQqgpLymZavkeEtmRXZpnjx5EpcuXVKQIxBkuktP/i2QIsfd9HnK68jff7rqQbPXY6b9XKBHXkvmw9BHjx6JwsICi4Alvm8CWKa7ZOVDizwnASY5v6NGjVS7US01kmu7CzdsWI93332r2utPXiePPPJw5fkyP8fy/OU8GwxlNm0aZNOA9powl5sHQfN6TxGwqNsfsGSBkNKM9unbGjg0b95MXeAtAZaUDqdNm6bKN9b6PwTgZDeY9KZYb9g9qMDCEqRpC8UTTzxWbZeVfLI/cGA/fv75J5szFuXvJQNlrWwkmQWBwHvvvctqtkjKjdZ6omQxlccuu/5MAUuTPD+BCln4pcdImuZl4PKmTZtUL5QArGQkZCGUEtPq1atUCdAcHCzd//Tp0ypKuGVmJaxC/PrrL1UWbW0OZFJSkkcBS+bkmZaA5dxppbknn3xc2XEIeDgSsitVds9V3yX5pUNlQg1SJNvXqNGDVV5zYlUikGepB1HePwL4poBl2rwuQD579qwq2SfT95D5+0nsPWRckelx0R6H7CC1NRtU+77YbtBolCJgUZSHAUti/fp1NpvTtf4R6deyZNeQnX1TbRM3/9RfdcG5G8OGDan0pzIP6amRRltLIKHdvzTzShlP6xUxN0q8ePEiunXrYtOZXso2u3btsngctm/frkDSkXKj6W0KVMrfyVZ76XUSCRyZL8iSgZEymCy4ycnJarG0txVfLCqk98vWuRF4/eyzz5QVgPmxFbgQKwnT56Q56QvQeRqwTIFVgxLJ+CxbttTmTtPqr8FstbPSFM6NgOOrGurt+UoZveGy1IYIgSXtg4K8psWCQXYLWgp5P8g5tbRzVmBR/NkchUTtMcrrUD5ImD8XOS7yIcDec7Hm5M5RORQBiyJguTkkq/Tmm2/YbNyWBaR9+/eqNdsaswcplbuurJWx5JP8unVRVnciyoIrpS5rFg8PPvgAxo0bV7k939qnd1lMxSvL2nOR7NKcOYEWy0Y1ASx5TtLALH1nM2f6q4VPynTiyySlRkuZOoEpc0NNRwwlo6Oj1X3ZKhUad3oeqHZ7cr4kC2beU/T+++/gwoXzugIs7biKr5MYd9bEyV1CmtAFQrTXoUCSvJ7EAFaOuT2XdeN0g1tZNfkqWTWBPWuvWwGsQYMGVnnNaMdYSr2Wyur2nou8xsV01tQAWG5TwE/K4tbeAwQsioBFUToCLG0HoJg3mjdgm2dqpGl4586d1W5DnMhlS7mtJnkBOKNVguUswOzZM6vt3DK9b9l1JYuyLasIkfh1iXGiMZtm6bHcqewfLGUVHAUsWcAF4oKC5qiskbmPlCPeVJYW3ZKSYvW4JNMlPUdJSYnKvV1sIbT+NmvHWBqhBezMj483AZY8LumTE3821GLUkWy0kGyTKaTLMZPmcnvjnrQh5QI12ntA2/Uq2UZrYQmwNJCX5vHajqIR13WBIu25aOftnXfeUplaW0HAoghYFKUTwNKMH8Up29bOPfk0L/0d5n8rjea27AfkZ7J70NoOPiljSR+LJbDRPrlLmcye47jWDzZhwgTll2TttiSzIM39tQUsyZLI7iutr8ZST429cpQm2QEnQCFN2uPGjcUvv/yMr776Au+887Zq+H7mmaeV27utxn/NA0nLtFTdZXbFawBLYOK7776xeG4cDXl9Ss+a6etWnPJlc4XtEuNNZbdgXpYTzy1Lu/dsAZbchvik1RYUtb7CgQMHVHNkl2b3AwcOELAoAhZFeUOJUBYA6TGRT8e2slhywZZdXaZmi7IYyngPa7sQjY7hsnsw2Or9i9O63Le18qB497z33rvK6VuyAnPmWFOg2obesWNHm9k0gRZxADdf/OwBlrEX7C6VJcnMzKh1dkIWZWnSX7BgAT7++CPVWybN9ZrflhxLc68ie+aj5rYL2uOSDNs333xVDbC0XaF668EaMWKYTSsNR5rdZaSQKfDLv6W0ZsseRAw7tQ0WprsBtaxgTQDLeHxfU3Bbl5C5nuKZZer6bjTqjSBgUQQsivIGwNJ2Qw0aNMhmn48s9pL9MR09I71HthrktcVGyl4W0E79V3aziTmjrR4wbdSHI7KVTZPbkcerZQFqAlhaX8+MGf61Hi8j5R0pRb3xxmuVDuH2rBgcdXeXnYTGx3TrcUnJUWwETHdGGncRPqksCfQCWJrfkxybulgGCJzJKB3Z0ar1MMnrVuZLSrnVWsgYI83fTANdsc2wl00zBywNaKRfsa7GnTJk3bw0LMdIsnS24J6ARRGwKEpHGSxZ1NasWa0+MVtbxGXRMZYo9lf+nbFv5T6buw/FA8jS7kNtgRCwkSZ4WzMRtSyNI7LliC6Ljuzy0wwoawJYxjJpY9Vz5kiflflzlc0A4ijfsGEDh8f/OPo7VQHLtK+rRGVvzDM6Apna4GK9AJaU9sQmoa7l7k2bNqqyoGmzuoCJtWkE6ekXlf+Yab+TfJWMqfy+LeBzJWDFx8cpuwrT16MG+AQsioBFUV6SwZKQRuD//Od5m5kkGZsjZThZdGRrvPRW2Zo9KOAku+CsmYsaR50Yd8nZAixnqa6AJSUaGc1S0/KglKAk+6dlq+w9T9Phv/Zc3TWjTnPA0sBZzFvN3ePlq8CxvgCrkRpwXNeQxn5T2xDtw4F4YpnugtWOlUwz0OYFamVgGeQdF3fIbg+VKwFLhlWLAa3p61GO0+jRowhYFAGLorwJsPLz89CvXx/VA2QJAOTT8x13/At+fp1VP4vM9pOBw9aa02VRk1KY1utjHbCMGQd7gGU+gLk2ktsR6JNRLbUFLBlqXRPAkvJop04d7fZSaSOAZAea7FJ84YXn8eabr+Pdd99RBqXWwMwaYGnPT/qIpJ/I9G/kHHft2gVZWTduK8DSNjpIGU0znb3lo/Yw9uzZU2WTgWT4xJdMMlwaeMp5Ms4xzHCon86VgPXcc89W+wAjI28IWBQBi6K8BLC0i3VISIiyXLBm+Cm9LdIgLSNL5BO+7HCzlvGSTMCAAf2tzjCsCWAZ5/XdVUfdrcBC4EUcs10NWNoCPnfu3Co726zttJTMWpcunZWDufhpyQIri6L0vMmCb83I1RZgSQjgynkyd3OXZn9txM7tBFhQjujxeP755xSwmpb9/P39q5QJb9zIRMeOHdRGCg3E5FwtW7bMoTKwa0uE8apEaHreZLeoZB4JWBQBi6K8KIMlIV5Vr732isXFXOtnkWyKLJBhYaFo1KihVe8qrTwIG95VEpJVkJ4g66B2t/LgkoG+n3/+GT7//NNa6jO147F3754WB/e6IoN1/vw5tUNSwM7SGCHt+Um2auXKFRb9uWTXpoxJqS1gCeCa/73W8yR9SY7M6vOmEqHxOeeqZneBatOMavv27yu7D+35HjlyWHlvaXAvvyPny5JRrLsBa/v2beq9ZgpYRvhbarN0ScCiCFgUpUPAEgft3377RWWMzI06TS/yK1YsV87q4itladGXheqjj6ruOLQGWGlpaWqLvCWbBs27SgZSp6amqIZkWShqr/OqD8fSiBpXZLBkhp1kpmxlrgQuQ0LWVmZMzD21BLrqAlhyuzK6x3QDgxEm7sIHH7SvnFHnTshyNWAZd7huqrLDVTt/4vmGCmf9mTNnKM8007l/4kdmaVOGuwFL5lmaZpON43J87G5OIGBRBCyK0hlgaQu6NLFLH5C1MqF8v0+fXiobYH3+4H0YNWqUcom3F2JdIDBm3QfrTrz00ovK3dqV4WzAErCRXiAp61gDI7mvTz/9xCrkyP8bTTBrXyI0ZibTKjKTplnC+9QIomnTptZo7p+3AJbMehSDWnMTUDEPlecrP5eMppY51bKzW7dudfg+rAGWTC7IyMio9WMX2xSZ/Wm+OUHsNcThn4BFEbAoyssAS0I8op566gmrzevyVVzGrfVqaf1E9gwRtZDdiLLo2fKvkiZkyZhpJqc1mVPn6O86G7AkQyI7+Gz1lkmPkDTAG13qyy2eD8kCvv32W1ZLqI4AVkFBfrUFWztXMgA7Jiam1sapegQsbQfl/Pnz1WvHdPzN22+/qXbMyuv80UcfqeJ99cknH9fISd6S0ajcnhzT/fv31TozKBtI5LGYj8qR78nkg5oClvRNErAoAhZFwPL4bsJ8dO3qZ3PXm63dftoF/dSpUw7fp/QfmbpWWzYIbY3p06ebbLW/BU+ymGqyNrrGUlnQ1YA1ceIEm2AkC+hnnxkzWJYet2Qy5s+fp9zwrR0bRwALFS7nsivR/PnJ7b7//rvK36ym/l56BiyRzBEUZ/dbFgxSkvVVXlnSy6RtPtDOj+worImJrLVZhAJ106dPtei7Ze9xy/1LCd70A4w2uFogWXrmbIVkTatnsF7x6GgkAhZFwKIIWBUX+aVLl6hFojau4nJB1xYCRxcXaSp+6603rJYJtWyLbL3v0OFH1dt06dJl5dxdXFyi7kuTQImUgKS0Jtkf2ZEXGDhbLaruLhFK+c2W75U8p7ZtWyM0NKTKwqkN4d64MboSEGrqg2Xp8QhUyHM0hzV5HDKOaNeunXYXcG8pEcrzlQ8LMt7JFHLlq5jfytBvrewqPxcPONnkUZNMniXA0kBOytq2BpRbC/lg8t5771Tx8ZLbk52g8lq29/jErNXUb03+LY382ngoAhZFwKIIWB4MGSsiW8RrOsJFfr91a1+1UNdkodL6lcz9mqyNzJESpDQSy3BkWSwlszVjxgxMmTIFI0eORN++ffDjj9+rjE3btm3U3w0aNEDBl7sAS34u7vji/m4r4ycL4LPPPoOZM2cq926BzdjY7RgxYoRD58BRwNI2MQwY0M9iFtL4OJ7G3LmBapeluYO5aTbQkiydU08ClvaYdu/epXahaudV7kuO6xNPPFbF7X3gwP4K2GsCQ9YyWNrxlB4w00yuLcNdVMyO7NOnd7Xh3vL4hg0batXyxDQE1uU1V7W5vynCw8McPncELIqARRGwXLib8IcfvrfRxH6vjabtj3H9+rUaX7zFkPO7775RW+sduU/jHL9bLuemFgRGF/Q7qyyqMqTZVuOxK2waxAZAFnJ7JqraOBeZPSfZBrG40LIPjs0idAyw5OeyqUD6vqzBnmxw+OyzT9WAboE96XszhSVri7OUtqSf7uTJk4iMDFe73aztxnMHYGkhQ5fF2d38vJq+XgTYZXdhTWHDFmBppT0x5hXfNW3Dh7Vjd+rUSQVXcvzNX+cC4Hv37nPoMe3YsaMKUGoAKTMpr127WuPeRAIWRcCiCFhO/ORfWloCf//ptRpfI6M8JFNU094T0cGDB9WOJ+Pi4NicPkckt/fKKy/Z7AtzRQZLLBZkx6Wt8UOmi738nkCtBlaOHHsNsOR8OfKYRMeOHYOfX6fKAcdVd4kaH4cci7feelP5SYlflpQrDx48oPqapJ9LlJCQgF27dqnsiNx/jx4/4d1331b9Q19//ZXaqedpwBJ4CQoymr2aZwON5rl3KLsKaSyvaVgHrKozJF9++SXlwC4jmmRDgzwmkXyQkWMoj08eQ6NGD1YeE+24yLGUnzuyI1fi5MkTysvLvPFezqecS/HXOn36tHq+R44cUT50AsYELIqARRGw3LSbUBYD7ZOwIwu9QIHMFJSFuLafjiVTItvkZUGqCWQ48tjEwV0WF3cCFtQcwkN46aUX7I7KsTbc2ZjdalANhswlDfX2GvlNQ3aVDRkySHkrmfcQacdMgz0pWckmBLExkDLic889rXrDpNTWsmVzBUcayGqQKOap4nFmC7BMPZ5cBVhaydvU2d302Mpzk8HONTl2tgBLG8vz+uuvVX5few/JzMMvvvhM7ZqVbJVk1sQDTh6D6cxJLXsp2awRI4YjNzfH4cckZcSBAwdUy37Kbf//7Z3Nb5RVFIf/CGmR6FY+IluRpQHpRr7CRiQsDNsKIiygRKAtSCILQJsQkdAiGILIAuxHAhsSibAikQQWwtJYSFjYrTHhNc8Zb7kzzEyn05nSlueX/KDQQu973xfu895z7jnAM7XBKCNBC6ZVq96L3LP7939v+sSjgKUFLC1gTQuyigjzNRomTCfi2L1INZ1mkpxMm5AdOz6NBYbaTY00SK4HLGknbnBwsC5grVixdPJrq/UxbKbZM4vw5cuXI5k9T1yeelfqrWjhsnr1+8X+/fsCdmuNjfk5dOhgwwnqafyE/65e/bnYsGF9LPIJqGqNMYVfkylIWznuVLG+BKNjNQELWMtDWOTftQOwuE6Kfh4+fOil5yidsGu2xlq1OljM4ebNm4qRkZEoZ5KXWuD7c08pnov5OAehfCcTcD16tL+YmPh72i9HJMNTM6vay1HKY0wADejeufObgKUFLC1gzV6Y8N8IDaW363xhrWZ2B06ePNFwFexGdlg4Nk8JAcIkLEj5W369khGlt/VS82T+HPlN7LiQdF5Lt27dikV+8eJFVXsZshgBfGNjY9PeoQNkOHq/Zs0Hk3OZ71ZUFpRMIMZpMuqJEdrkz3Z0LIoctcqxcY1Ue6/WaqcRoKXv4alTJyJMxS4kYbNac10NPF/Md2ks/B4LPJBRTYSCOQzBdZbmtjOes/Pnh9rxNMeP5ISR21Z5Tb29h6JOWKsAK1Vy557zTG3fvu3/F4XFZRCanM9huu+E+DjxOZ2dq8oQP5XgqfPF31n5rKUxpJp1perwzwUsLWBpAWu2dPfunaKr68PYfSHEVsskZ2/c+FEUb2yl2JEh+Rcw2rXrswhP8WYPCFUu7mkBIddm+fJ3YszsTuzduyfKThAGmZiYqHuyDZgjV4s6XuSCJfPrrq51EVbhVFozIVBCUPfu3YvQEEfuUzJzGj9m0QMmCZFS4oGCmCzihH1oYUSosXJsmDEfPPjllEUo64kcHxpDX79+PXbMuO8rV747Odf5OPM5T+FD4IX7Q/NkwJhnodZ8P3z4MA5DcH9K17MuiqkOD//SlpcFNDw8HPCY7yblYeNm4GKqVjn8nezonjt3tti0aX2EY5mvfCcwhSl5rsl54zTso0d/zLhcBt+f0iSEJLnudM053PPiQVFUvm4Wk979/14LWFrA4j9pEmLJpaFGUC3zeXac2lVDiV0WdmceP34UuwKXLv1YDAx8G3lHHF8nsZ7dM3rLXbjwQzE6OhK5TzRbpvFvvZIB+bVywo4FsVYfQz7PUf5mF/oUliO5+OLFi8WxY18VBw70FD09+4q+vsNxTaOjozHnqaREKqRKcnStsfH7KXm6FUBC/SjmjgR2isAODHxTHDnSH2G23MePf12cOfNdADBfS4I1idtT7WICc5SCYE5fzO2fk5X623EqdufO7rJwHCBEUn4jpQ+aBay0e8bXcY3UbyPfi7wqQJtyInx8+vTp2EXiPrby3xDPzfj4XxHW5pQpEE6iO2Om5+LQ0FC8MJjkrgUsLWC9pqpcAFk4WLRwKjCafl2tGvkrPJJe8zrSNeRFUvPK369qvLXmOh9nPl6grlbNrLny7Fy7di1CknltKHavgIsSBLULsMrnNFVqTwVxMR/n1ePbMW8p5F+6b/+U3TvrYGkBSwtYqu4iXtlqZr5B41yCkmrjenlsz+fsmHOxM7Zt2ydlEARosXs1052bRgGr3lzOxhxOVeBUwNIClhawlFINQwUhR8LHqe1Tgit2r27evDljwJguYCkBSwtYWsBSal6L8NvQ0GAkeOflGfi5v783cq9mKgFLwNIClhawlHotdq2KrCwGJ+QqE9vpT0kV+lZIwBKwtIClBSylFjxc4SdPnsTpUiqW5zWv+JhSCFeu/NSyk3oCloClBSwtYCm1oOGKvoc3btyI7gPUGCvtXL1d1kybUhOtCA0KWAKWFrC0gKXUghalBm7f/jXAil2ryir5/EwBV04NPn36tKXfW8ASsLSApQUspRakAJm+vt6is7OjDKrSiUGqpO/Z80UUiW21EmDl/RsBrC1bNgtYApYWsLSApdT8Fu19li1bWnZaEOihuChhwfHx8bZ8XwCrp2d/0dm5KHr+4Y6ON6LpuYAlYGkBSwtYSs1LpVODDx48iGbYNKlesuTNyLfauvXjqODeTAPs6YQnaW+0du2a6N2I6Re5e/fnk62OlIClBSwtYCk1L/Xs2bOiu7s7mo7TRPrs2e9j12o2KpXTV5GyELmb7VcpYGktYGkBS6k5I0J1NNCmETi5VvOhhY+ApbWApQUspeZl6FAJWFrA0loppQQsrQUsLWAppZSApQUsLWAppZSApQUsLWAppZSApQUsJ0ELWEopJWBpAUsLWEopJWBpAUsLWEopJWBpAUtrAUsppQQsLWBpAUsppQQsLWBpAUsppQQsLWBpLWAppQQsrQUsLWAppZSApQUsLWAppZSApQUsLWAppZSApbWApQUspZQSsLSApQUspZQSsLSApQUspZQSsLSApbWApZRSApYWsLSApZRSApaeo/4PGzL5E8WVhxgAAAAASUVORK5CYII=;" parent="Y41P-z0WBD0zW_LyuXKW-9" vertex="1">
          <mxGeometry x="-29" y="-7" width="102.85" height="54" as="geometry" />
        </mxCell>
        <mxCell id="Y41P-z0WBD0zW_LyuXKW-12" value="" style="group" parent="Y41P-z0WBD0zW_LyuXKW-16" vertex="1" connectable="0">
          <mxGeometry x="2" y="57" width="344.25" height="67.75999999999999" as="geometry" />
        </mxCell>
        <mxCell id="Y41P-z0WBD0zW_LyuXKW-13" value="2. Decrypt the Veracrypt partition.&amp;nbsp;" style="text;html=1;align=center;verticalAlign=middle;resizable=0;points=[];autosize=1;strokeColor=none;fillColor=none;fontSize=19;" parent="Y41P-z0WBD0zW_LyuXKW-12" vertex="1">
          <mxGeometry x="39.25" y="6.75" width="305" height="35" as="geometry" />
        </mxCell>
        <mxCell id="Y41P-z0WBD0zW_LyuXKW-14" value="" style="aspect=fixed;perimeter=ellipsePerimeter;html=1;align=center;shadow=0;dashed=0;spacingTop=3;image;image=img/lib/active_directory/not_secure.svg;strokeColor=default;fontSize=19;fillColor=none;" parent="Y41P-z0WBD0zW_LyuXKW-12" vertex="1">
          <mxGeometry width="38.5" height="43.75" as="geometry" />
        </mxCell>
        <mxCell id="Y41P-z0WBD0zW_LyuXKW-15" value="" style="rounded=0;whiteSpace=wrap;html=1;strokeColor=default;fontSize=19;fillColor=none;" parent="Y41P-z0WBD0zW_LyuXKW-12" vertex="1">
          <mxGeometry x="-20" y="-61" width="360" height="128.76" as="geometry" />
        </mxCell>
        <mxCell id="oMuFuxvRiqqJJlW-Mgf_-1" style="edgeStyle=orthogonalEdgeStyle;rounded=0;orthogonalLoop=1;jettySize=auto;html=1;entryX=0;entryY=0.5;entryDx=0;entryDy=0;" parent="1" source="yElIzEVytk4T3G2UVmzk-65" target="Y41P-z0WBD0zW_LyuXKW-15" edge="1">
          <mxGeometry relative="1" as="geometry" />
        </mxCell>
        <mxCell id="yElIzEVytk4T3G2UVmzk-76" value="&lt;h1&gt;Synopsis:&amp;nbsp;&lt;/h1&gt;&lt;p&gt;Layer 1 Data : Personal data, risk factor - &lt;font color=&quot;#6666ff&quot;&gt;medium&lt;/font&gt;&lt;/p&gt;&lt;p&gt;Layer&amp;nbsp;2 Data : Personal data, risk factor - &lt;font color=&quot;#ff3333&quot;&gt;high&lt;/font&gt;&lt;/p&gt;&lt;p&gt;&lt;b style=&quot;background-color: initial; color: rgb(255, 0, 0);&quot;&gt;Backup version : L1 -&amp;gt; v6, L2 -&amp;gt; v3&lt;/b&gt;&lt;br&gt;&lt;/p&gt;&lt;p&gt;&lt;font color=&quot;#66b2ff&quot;&gt;&lt;br&gt;&lt;/font&gt;&lt;/p&gt;" style="text;html=1;strokeColor=none;fillColor=none;spacing=5;spacingTop=-20;whiteSpace=wrap;overflow=hidden;rounded=0;shadow=0;fontSize=15;" parent="1" vertex="1">
          <mxGeometry x="9" y="750" width="738" height="159" as="geometry" />
        </mxCell>
        <mxCell id="oMuFuxvRiqqJJlW-Mgf_-6" value="&lt;font style=&quot;font-size: 17px;&quot;&gt;Veracrypt Encryption&lt;/font&gt;" style="text;html=1;align=center;verticalAlign=middle;resizable=0;points=[];autosize=1;strokeColor=none;fillColor=none;fontStyle=1" parent="1" vertex="1">
          <mxGeometry x="10" y="432" width="189" height="32" as="geometry" />
        </mxCell>
        <mxCell id="8-eyBk9QW6LWbDniYS2J-5" value="" style="group" parent="1" vertex="1" connectable="0">
          <mxGeometry x="276.5" y="53" width="116.5" height="201" as="geometry" />
        </mxCell>
        <mxCell id="yElIzEVytk4T3G2UVmzk-42" value="" style="group" parent="8-eyBk9QW6LWbDniYS2J-5" vertex="1" connectable="0">
          <mxGeometry x="2.5" y="90" width="112" height="101.5" as="geometry" />
        </mxCell>
        <mxCell id="yElIzEVytk4T3G2UVmzk-43" value="" style="shape=image;html=1;verticalAlign=top;verticalLabelPosition=bottom;labelBackgroundColor=#ffffff;imageAspect=0;aspect=fixed;image=https://cdn4.iconfinder.com/data/icons/basic-user-interface-2/512/User_Interface-14-128.png" parent="yElIzEVytk4T3G2UVmzk-42" vertex="1">
          <mxGeometry width="52" height="52" as="geometry" />
        </mxCell>
        <mxCell id="yElIzEVytk4T3G2UVmzk-44" value="keys" style="text;html=1;align=center;verticalAlign=middle;resizable=0;points=[];autosize=1;strokeColor=none;fillColor=none;" parent="yElIzEVytk4T3G2UVmzk-42" vertex="1">
          <mxGeometry x="35" y="11" width="50" height="30" as="geometry" />
        </mxCell>
        <mxCell id="yElIzEVytk4T3G2UVmzk-47" value="" style="shape=image;html=1;verticalAlign=top;verticalLabelPosition=bottom;labelBackgroundColor=#ffffff;imageAspect=0;aspect=fixed;image=https://cdn4.iconfinder.com/data/icons/basic-user-interface-2/512/User_Interface-14-128.png" parent="yElIzEVytk4T3G2UVmzk-42" vertex="1">
          <mxGeometry x="-2" y="-25" width="52" height="52" as="geometry" />
        </mxCell>
        <mxCell id="yElIzEVytk4T3G2UVmzk-48" value="images" style="text;html=1;align=center;verticalAlign=middle;resizable=0;points=[];autosize=1;strokeColor=none;fillColor=none;" parent="yElIzEVytk4T3G2UVmzk-42" vertex="1">
          <mxGeometry x="38" y="-15" width="57" height="26" as="geometry" />
        </mxCell>
        <mxCell id="yElIzEVytk4T3G2UVmzk-51" value="" style="rounded=0;whiteSpace=wrap;html=1;fillColor=none;" parent="yElIzEVytk4T3G2UVmzk-42" vertex="1">
          <mxGeometry x="-11" y="-99.5" width="123" height="201" as="geometry" />
        </mxCell>
        <mxCell id="yElIzEVytk4T3G2UVmzk-50" value="" style="verticalLabelPosition=bottom;html=1;verticalAlign=top;align=center;strokeColor=none;fillColor=#00BEF2;shape=mxgraph.azure.git_repository;" parent="8-eyBk9QW6LWbDniYS2J-5" vertex="1">
          <mxGeometry x="17.5" width="50" height="50" as="geometry" />
        </mxCell>
        <mxCell id="yElIzEVytk4T3G2UVmzk-49" value="&lt;i style=&quot;border-color: var(--border-color); font-size: 15px;&quot;&gt;&lt;b&gt;sep 2023&lt;/b&gt;&lt;/i&gt;" style="text;html=1;align=center;verticalAlign=middle;resizable=0;points=[];autosize=1;strokeColor=none;fillColor=none;" parent="8-eyBk9QW6LWbDniYS2J-5" vertex="1">
          <mxGeometry x="3" y="50" width="81" height="30" as="geometry" />
        </mxCell>
        <mxCell id="OYULaESSwx-3YMfkk9iS-3" value="" style="shape=image;html=1;verticalAlign=top;verticalLabelPosition=bottom;labelBackgroundColor=#ffffff;imageAspect=0;aspect=fixed;image=https://cdn4.iconfinder.com/data/icons/basic-user-interface-2/512/User_Interface-14-128.png" parent="8-eyBk9QW6LWbDniYS2J-5" vertex="1">
          <mxGeometry x="2.5" y="119" width="52" height="52" as="geometry" />
        </mxCell>
        <mxCell id="OYULaESSwx-3YMfkk9iS-4" value="hints" style="text;html=1;align=center;verticalAlign=middle;resizable=0;points=[];autosize=1;strokeColor=none;fillColor=none;" parent="8-eyBk9QW6LWbDniYS2J-5" vertex="1">
          <mxGeometry x="41.5" y="132" width="43" height="26" as="geometry" />
        </mxCell>
        <mxCell id="8-eyBk9QW6LWbDniYS2J-3" value="passwords" style="text;html=1;align=center;verticalAlign=middle;resizable=0;points=[];autosize=1;strokeColor=none;fillColor=none;" parent="8-eyBk9QW6LWbDniYS2J-5" vertex="1">
          <mxGeometry x="41.5" y="162" width="75" height="26" as="geometry" />
        </mxCell>
        <mxCell id="8-eyBk9QW6LWbDniYS2J-4" value="" style="shape=image;html=1;verticalAlign=top;verticalLabelPosition=bottom;labelBackgroundColor=#ffffff;imageAspect=0;aspect=fixed;image=https://cdn4.iconfinder.com/data/icons/basic-user-interface-2/512/User_Interface-14-128.png" parent="8-eyBk9QW6LWbDniYS2J-5" vertex="1">
          <mxGeometry x="2.5" y="149" width="52" height="52" as="geometry" />
        </mxCell>
        <mxCell id="yElIzEVytk4T3G2UVmzk-32" value="" style="group;fontStyle=1" parent="1" vertex="1" connectable="0">
          <mxGeometry x="21" y="479" width="199" height="172" as="geometry" />
        </mxCell>
        <mxCell id="yElIzEVytk4T3G2UVmzk-33" value="" style="group;shadow=0;strokeColor=#b85450;fillColor=#f8cecc;strokeWidth=6;" parent="yElIzEVytk4T3G2UVmzk-32" vertex="1" connectable="0">
          <mxGeometry x="2.5" y="42.081226553580166" width="196.5" height="129.91877344641983" as="geometry" />
        </mxCell>
        <mxCell id="yElIzEVytk4T3G2UVmzk-37" value="Layer 2 - Data" style="text;html=1;align=center;verticalAlign=middle;resizable=0;points=[];autosize=1;strokeColor=none;fillColor=none;fontStyle=1" parent="yElIzEVytk4T3G2UVmzk-32" vertex="1">
          <mxGeometry x="36" y="16.08187734464198" width="97" height="26" as="geometry" />
        </mxCell>
        <mxCell id="yElIzEVytk4T3G2UVmzk-38" value="&lt;span style=&quot;font-size: 16px;&quot;&gt;&lt;b&gt;LUKS Encryption&lt;/b&gt;&lt;/span&gt;" style="text;html=1;align=center;verticalAlign=middle;resizable=0;points=[];autosize=1;strokeColor=none;fillColor=none;" parent="yElIzEVytk4T3G2UVmzk-32" vertex="1">
          <mxGeometry x="30" y="137.0036796607405" width="150" height="31" as="geometry" />
        </mxCell>
        <mxCell id="yElIzEVytk4T3G2UVmzk-34" value="" style="group" parent="1" vertex="1" connectable="0">
          <mxGeometry x="50" y="529" width="196.5" height="92.62" as="geometry" />
        </mxCell>
        <mxCell id="yElIzEVytk4T3G2UVmzk-35" value="" style="rounded=0;whiteSpace=wrap;html=1;labelBackgroundColor=#ffffff;sketch=0;fontColor=#000000;fillColor=none;" parent="yElIzEVytk4T3G2UVmzk-34" vertex="1">
          <mxGeometry width="120" height="72" as="geometry" />
        </mxCell>
        <mxCell id="yElIzEVytk4T3G2UVmzk-36" value="pid/&lt;br&gt;financail/&lt;br&gt;backups/" style="html=1;shape=mxgraph.sysml.actPart;strokeWidth=3;verticalAlign=top;rotation=0;whiteSpace=wrap;labelBackgroundColor=#ffffff;sketch=0;fontColor=#000000;fillColor=none;" parent="yElIzEVytk4T3G2UVmzk-34" vertex="1">
          <mxGeometry x="30" y="4.95" width="60" height="52.05" as="geometry" />
        </mxCell>
        <mxCell id="8-eyBk9QW6LWbDniYS2J-13" value="" style="group" parent="yElIzEVytk4T3G2UVmzk-34" vertex="1" connectable="0">
          <mxGeometry x="8.5" y="55" width="103" height="31" as="geometry" />
        </mxCell>
        <mxCell id="8-eyBk9QW6LWbDniYS2J-10" value="" style="shape=image;html=1;verticalAlign=top;verticalLabelPosition=bottom;labelBackgroundColor=#ffffff;imageAspect=0;aspect=fixed;image=https://cdn1.iconfinder.com/data/icons/hawcons/32/698946-icon-100-folder-locked-128.png" parent="8-eyBk9QW6LWbDniYS2J-13" vertex="1">
          <mxGeometry x="37" width="31" height="31" as="geometry" />
        </mxCell>
        <mxCell id="8-eyBk9QW6LWbDniYS2J-11" value="" style="shape=image;html=1;verticalAlign=top;verticalLabelPosition=bottom;labelBackgroundColor=#ffffff;imageAspect=0;aspect=fixed;image=https://cdn1.iconfinder.com/data/icons/hawcons/32/698946-icon-100-folder-locked-128.png" parent="8-eyBk9QW6LWbDniYS2J-13" vertex="1">
          <mxGeometry width="31" height="31" as="geometry" />
        </mxCell>
        <mxCell id="8-eyBk9QW6LWbDniYS2J-12" value="" style="shape=image;html=1;verticalAlign=top;verticalLabelPosition=bottom;labelBackgroundColor=#ffffff;imageAspect=0;aspect=fixed;image=https://cdn1.iconfinder.com/data/icons/hawcons/32/698946-icon-100-folder-locked-128.png" parent="8-eyBk9QW6LWbDniYS2J-13" vertex="1">
          <mxGeometry x="72" width="31" height="31" as="geometry" />
        </mxCell>
        <mxCell id="84EcXkpLeITRzxkIlj9H-1" value="" style="group" parent="1" vertex="1" connectable="0">
          <mxGeometry x="304" y="533" width="346" height="126" as="geometry" />
        </mxCell>
        <mxCell id="Y41P-z0WBD0zW_LyuXKW-3" value="" style="group" parent="84EcXkpLeITRzxkIlj9H-1" vertex="1" connectable="0">
          <mxGeometry x="7" y="53" width="339" height="73" as="geometry" />
        </mxCell>
        <mxCell id="8-eyBk9QW6LWbDniYS2J-14" value="" style="rounded=0;whiteSpace=wrap;html=1;" parent="Y41P-z0WBD0zW_LyuXKW-3" vertex="1">
          <mxGeometry x="-20" y="-72" width="359" height="145" as="geometry" />
        </mxCell>
        <mxCell id="yElIzEVytk4T3G2UVmzk-58" value="2. Decrypt the LUKS partition.&amp;nbsp;" style="text;html=1;align=center;verticalAlign=middle;resizable=0;points=[];autosize=1;strokeColor=none;fillColor=none;fontSize=19;" parent="Y41P-z0WBD0zW_LyuXKW-3" vertex="1">
          <mxGeometry x="51.25" y="3.75" width="280" height="40" as="geometry" />
        </mxCell>
        <mxCell id="yElIzEVytk4T3G2UVmzk-59" value="" style="aspect=fixed;perimeter=ellipsePerimeter;html=1;align=center;shadow=0;dashed=0;spacingTop=3;image;image=img/lib/active_directory/not_secure.svg;strokeColor=default;fontSize=19;fillColor=none;" parent="Y41P-z0WBD0zW_LyuXKW-3" vertex="1">
          <mxGeometry width="38.5" height="43.75" as="geometry" />
        </mxCell>
        <mxCell id="yElIzEVytk4T3G2UVmzk-55" value="" style="sketch=0;aspect=fixed;pointerEvents=1;shadow=0;dashed=0;html=1;strokeColor=none;labelPosition=center;verticalLabelPosition=bottom;verticalAlign=top;align=center;fillColor=#00188D;shape=mxgraph.azure.virtual_machine_feature;fontSize=19;" parent="84EcXkpLeITRzxkIlj9H-1" vertex="1">
          <mxGeometry width="50" height="45" as="geometry" />
        </mxCell>
        <mxCell id="yElIzEVytk4T3G2UVmzk-56" value="1. Load a portable OS." style="text;html=1;align=center;verticalAlign=middle;resizable=0;points=[];autosize=1;strokeColor=none;fillColor=none;fontSize=19;" parent="84EcXkpLeITRzxkIlj9H-1" vertex="1">
          <mxGeometry x="71" width="210" height="40" as="geometry" />
        </mxCell>
        <mxCell id="qgCVbKUqNg_wTFg6jSaY-1" value="&lt;u&gt;&lt;b&gt;Backup to&lt;/b&gt;&lt;/u&gt;" style="text;html=1;align=center;verticalAlign=middle;resizable=0;points=[];autosize=1;strokeColor=none;fillColor=none;fontColor=#000000;" vertex="1" parent="1">
          <mxGeometry x="707" y="291" width="76" height="26" as="geometry" />
        </mxCell>
        <mxCell id="qgCVbKUqNg_wTFg6jSaY-4" value="#duplicity.&lt;br&gt;#cold_storage&lt;br&gt;#gdrive" style="rounded=0;whiteSpace=wrap;html=1;" vertex="1" parent="1">
          <mxGeometry x="681" y="333" width="129" height="126" as="geometry" />
        </mxCell>
        <mxCell id="qgCVbKUqNg_wTFg6jSaY-9" value="#gpg -&amp;gt; LUKS&lt;br&gt;#cold_storage&lt;br&gt;#gdrive&lt;br&gt;#dropbox&lt;br&gt;#vps" style="rounded=0;whiteSpace=wrap;html=1;" vertex="1" parent="1">
          <mxGeometry x="681" y="518" width="129" height="126" as="geometry" />
        </mxCell>
      </root>
    </mxGraphModel>
  </diagram>
</mxfile>
